<svg aria-labelledby="title" id="Ebene_1" xmlns="http://www.w3.org/2000/svg" viewBox="0 0 88 88" role="img"><title id="title">Icon: Fibonacci</title><path fill="#e9f1f5" d="M0 0h88v88H0z"/><g id="_x38__2_"><path fill="#fcfcfa" d="M12.4 24.7h4.7v4.7h-4.7z"/><path fill="#e9f1f5" d="M16.8 25v4h-4v-4h4m.7-.7H12v5.5h5.5v-5.5z"/><path fill="#fcfcfa" d="M17.3 24.7H22v4.7h-4.7z"/><path fill="#e9f1f5" d="M21.7 25v4h-4v-4h4m.7-.7H17v5.5h5.5v-5.5h-.1z"/><path fill="#fcfcfa" d="M22.2 24.7h4.7v4.7h-4.7z"/><path fill="#e9f1f5" d="M26.6 25v4h-4v-4h4m.7-.7h-5.5v5.5h5.5v-5.5z"/><path fill="#fcfcfa" d="M27.1 24.7h4.7v4.7h-4.7z"/><path fill="#e9f1f5" d="M31.5 25v4h-4v-4h4m.7-.7h-5.5v5.5h5.5v-5.5z"/><path fill="#fcfcfa" d="M32 24.7h4.7v4.7H32z"/><path fill="#e9f1f5" d="M36.4 25v4h-4v-4h4m.7-.7h-5.5v5.5h5.5v-5.5z"/><path fill="#fcfcfa" d="M36.9 24.7h4.7v4.7h-4.7z"/><path fill="#e9f1f5" d="M41.3 25v4h-4v-4h4m.7-.7h-5.5v5.5H42v-5.5z"/><path fill="#fcfcfa" d="M41.8 24.7h4.7v4.7h-4.7z"/><path fill="#e9f1f5" d="M46.2 25v4h-4v-4h4m.7-.7h-5.5v5.5h5.5v-5.5z"/><path fill="#fcfcfa" d="M46.8 24.7h4.7v4.7h-4.7z"/><path fill="#e9f1f5" d="M51.1 25v4h-4v-4h4m.7-.7h-5.5v5.5h5.5v-5.5z"/><path fill="#fcfcfa" d="M12.4 29.6h4.7v4.7h-4.7z"/><path fill="#e9f1f5" d="M16.8 29.9v4h-4v-4h4m.7-.7H12v5.5h5.5v-5.5z"/><path fill="#fcfcfa" d="M17.3 29.6H22v4.7h-4.7z"/><path fill="#e9f1f5" d="M21.7 29.9v4h-4v-4h4m.7-.7H17v5.5h5.5v-5.5h-.1z"/><path fill="#fcfcfa" d="M22.2 29.6h4.7v4.7h-4.7z"/><path fill="#e9f1f5" d="M26.6 29.9v4h-4v-4h4m.7-.7h-5.5v5.5h5.5v-5.5z"/><path fill="#fcfcfa" d="M27.1 29.6h4.7v4.7h-4.7z"/><path fill="#e9f1f5" d="M31.5 29.9v4h-4v-4h4m.7-.7h-5.5v5.5h5.5v-5.5z"/><path fill="#fcfcfa" d="M32 29.6h4.7v4.7H32z"/><path fill="#e9f1f5" d="M36.4 29.9v4h-4v-4h4m.7-.7h-5.5v5.5h5.5v-5.5z"/><path fill="#fcfcfa" d="M36.9 29.6h4.7v4.7h-4.7z"/><path fill="#e9f1f5" d="M41.3 29.9v4h-4v-4h4m.7-.7h-5.5v5.5H42v-5.5z"/><path fill="#fcfcfa" d="M41.8 29.6h4.7v4.7h-4.7z"/><path fill="#e9f1f5" d="M46.2 29.9v4h-4v-4h4m.7-.7h-5.5v5.5h5.5v-5.5z"/><path fill="#fcfcfa" d="M46.8 29.6h4.7v4.7h-4.7z"/><path fill="#e9f1f5" d="M51.1 29.9v4h-4v-4h4m.7-.7h-5.5v5.5h5.5v-5.5z"/><path fill="#fcfcfa" d="M12.4 34.5h4.7v4.7h-4.7z"/><path fill="#e9f1f5" d="M16.8 34.9v4h-4v-4h4m.7-.8H12v5.5h5.5v-5.5z"/><path fill="#fcfcfa" d="M17.3 34.5H22v4.7h-4.7z"/><path fill="#e9f1f5" d="M21.7 34.9v4h-4v-4h4m.7-.8H17v5.5h5.5v-5.5h-.1z"/><path fill="#fcfcfa" d="M22.2 34.5h4.7v4.7h-4.7z"/><path fill="#e9f1f5" d="M26.6 34.9v4h-4v-4h4m.7-.8h-5.5v5.5h5.5v-5.5z"/><path fill="#fcfcfa" d="M27.1 34.5h4.7v4.7h-4.7z"/><path fill="#e9f1f5" d="M31.5 34.9v4h-4v-4h4m.7-.8h-5.5v5.5h5.5v-5.5z"/><path fill="#fcfcfa" d="M32 34.5h4.7v4.7H32z"/><path fill="#e9f1f5" d="M36.4 34.9v4h-4v-4h4m.7-.8h-5.5v5.5h5.5v-5.5z"/><path fill="#fcfcfa" d="M36.9 34.5h4.7v4.7h-4.7z"/><path fill="#e9f1f5" d="M41.3 34.9v4h-4v-4h4m.7-.8h-5.5v5.5H42v-5.5z"/><path fill="#fcfcfa" d="M41.8 34.5h4.7v4.7h-4.7z"/><path fill="#e9f1f5" d="M46.2 34.9v4h-4v-4h4m.7-.8h-5.5v5.5h5.5v-5.5z"/><path fill="#fcfcfa" d="M46.8 34.5h4.7v4.7h-4.7z"/><path fill="#e9f1f5" d="M51.1 34.9v4h-4v-4h4m.7-.8h-5.5v5.5h5.5v-5.5z"/><path fill="#fcfcfa" d="M12.4 39.4h4.7v4.7h-4.7z"/><path fill="#e9f1f5" d="M16.8 39.7v4h-4v-4h4m.7-.7H12v5.5h5.5V39z"/><path fill="#fcfcfa" d="M17.3 39.4H22v4.7h-4.7z"/><path fill="#e9f1f5" d="M21.7 39.7v4h-4v-4h4m.7-.7H17v5.5h5.5V39h-.1z"/><path fill="#fcfcfa" d="M22.2 39.4h4.7v4.7h-4.7z"/><path fill="#e9f1f5" d="M26.6 39.7v4h-4v-4h4m.7-.7h-5.5v5.5h5.5V39z"/><path fill="#fcfcfa" d="M27.1 39.4h4.7v4.7h-4.7z"/><path fill="#e9f1f5" d="M31.5 39.7v4h-4v-4h4m.7-.7h-5.5v5.5h5.5V39z"/><path fill="#fcfcfa" d="M32 39.4h4.7v4.7H32z"/><path fill="#e9f1f5" d="M36.4 39.7v4h-4v-4h4m.7-.7h-5.5v5.5h5.5V39z"/><path fill="#fcfcfa" d="M36.9 39.4h4.7v4.7h-4.7z"/><path fill="#e9f1f5" d="M41.3 39.7v4h-4v-4h4m.7-.7h-5.5v5.5H42V39z"/><path fill="#fcfcfa" d="M41.8 39.4h4.7v4.7h-4.7z"/><path fill="#e9f1f5" d="M46.2 39.7v4h-4v-4h4m.7-.7h-5.5v5.5h5.5V39z"/><path fill="#fcfcfa" d="M46.8 39.4h4.7v4.7h-4.7z"/><path fill="#e9f1f5" d="M51.1 39.7v4h-4v-4h4m.7-.7h-5.5v5.5h5.5V39z"/><path fill="#fcfcfa" d="M12.4 44.3h4.7V49h-4.7z"/><path fill="#e9f1f5" d="M16.8 44.7v4h-4v-4h4m.7-.8H12v5.5h5.5v-5.5z"/><path fill="#fcfcfa" d="M17.3 44.3H22V49h-4.7z"/><path fill="#e9f1f5" d="M21.7 44.7v4h-4v-4h4m.7-.8H17v5.5h5.5v-5.5h-.1z"/><path fill="#fcfcfa" d="M22.2 44.3h4.7V49h-4.7z"/><path fill="#e9f1f5" d="M26.6 44.7v4h-4v-4h4m.7-.8h-5.5v5.5h5.5v-5.5z"/><path fill="#fcfcfa" d="M27.1 44.3h4.7V49h-4.7z"/><path fill="#e9f1f5" d="M31.5 44.7v4h-4v-4h4m.7-.8h-5.5v5.5h5.5v-5.5z"/><path fill="#fcfcfa" d="M32 44.3h4.7V49H32z"/><path fill="#e9f1f5" d="M36.4 44.7v4h-4v-4h4m.7-.8h-5.5v5.5h5.5v-5.5z"/><path fill="#fcfcfa" d="M36.9 44.3h4.7V49h-4.7z"/><path fill="#e9f1f5" d="M41.3 44.7v4h-4v-4h4m.7-.8h-5.5v5.5H42v-5.5z"/><path fill="#fcfcfa" d="M41.8 44.3h4.7V49h-4.7z"/><path fill="#e9f1f5" d="M46.2 44.7v4h-4v-4h4m.7-.8h-5.5v5.5h5.5v-5.5z"/><path fill="#fcfcfa" d="M46.8 44.3h4.7V49h-4.7z"/><path fill="#e9f1f5" d="M51.1 44.7v4h-4v-4h4m.7-.8h-5.5v5.5h5.5v-5.5z"/><path fill="#fcfcfa" d="M12.4 49.2h4.7v4.7h-4.7z"/><path fill="#e9f1f5" d="M16.8 49.6v4h-4v-4h4m.7-.8H12v5.5h5.5v-5.5z"/><path fill="#fcfcfa" d="M17.3 49.2H22v4.7h-4.7z"/><path fill="#e9f1f5" d="M21.7 49.6v4h-4v-4h4m.7-.8H17v5.5h5.5v-5.5h-.1z"/><path fill="#fcfcfa" d="M22.2 49.2h4.7v4.7h-4.7z"/><path fill="#e9f1f5" d="M26.6 49.6v4h-4v-4h4m.7-.8h-5.5v5.5h5.5v-5.5z"/><path fill="#fcfcfa" d="M27.1 49.2h4.7v4.7h-4.7z"/><path fill="#e9f1f5" d="M31.5 49.6v4h-4v-4h4m.7-.8h-5.5v5.5h5.5v-5.5z"/><path fill="#fcfcfa" d="M32 49.2h4.7v4.7H32z"/><path fill="#e9f1f5" d="M36.4 49.6v4h-4v-4h4m.7-.8h-5.5v5.5h5.5v-5.5z"/><path fill="#fcfcfa" d="M36.9 49.2h4.7v4.7h-4.7z"/><path fill="#e9f1f5" d="M41.3 49.6v4h-4v-4h4m.7-.8h-5.5v5.5H42v-5.5z"/><path fill="#fcfcfa" d="M41.8 49.2h4.7v4.7h-4.7z"/><path fill="#e9f1f5" d="M46.2 49.6v4h-4v-4h4m.7-.8h-5.5v5.5h5.5v-5.5z"/><path fill="#fcfcfa" d="M46.8 49.2h4.7v4.7h-4.7z"/><path fill="#e9f1f5" d="M51.1 49.6v4h-4v-4h4m.7-.8h-5.5v5.5h5.5v-5.5z"/><g><path fill="#fcfcfa" d="M12.4 54.1h4.7v4.7h-4.7z"/><path fill="#e9f1f5" d="M16.8 54.5v4h-4v-4h4m.7-.8H12v5.5h5.5v-5.5z"/></g><g><path fill="#fcfcfa" d="M17.3 54.1H22v4.7h-4.7z"/><path fill="#e9f1f5" d="M21.7 54.5v4h-4v-4h4m.7-.8H17v5.5h5.5v-5.5h-.1z"/></g><g><path fill="#fcfcfa" d="M22.2 54.1h4.7v4.7h-4.7z"/><path fill="#e9f1f5" d="M26.6 54.5v4h-4v-4h4m.7-.8h-5.5v5.5h5.5v-5.5z"/></g><g><path fill="#fcfcfa" d="M27.1 54.1h4.7v4.7h-4.7z"/><path fill="#e9f1f5" d="M31.5 54.5v4h-4v-4h4m.7-.8h-5.5v5.5h5.5v-5.5z"/></g><g><path fill="#fcfcfa" d="M32 54.1h4.7v4.7H32z"/><path fill="#e9f1f5" d="M36.4 54.5v4h-4v-4h4m.7-.8h-5.5v5.5h5.5v-5.5z"/></g><g><path fill="#fcfcfa" d="M36.9 54.1h4.7v4.7h-4.7z"/><path fill="#e9f1f5" d="M41.3 54.5v4h-4v-4h4m.7-.8h-5.5v5.5H42v-5.5z"/></g><g><path fill="#fcfcfa" d="M41.8 54.1h4.7v4.7h-4.7z"/><path fill="#e9f1f5" d="M46.2 54.5v4h-4v-4h4m.7-.8h-5.5v5.5h5.5v-5.5z"/></g><g><path fill="#fcfcfa" d="M46.8 54.1h4.7v4.7h-4.7z"/><path fill="#e9f1f5" d="M51.1 54.5v4h-4v-4h4m.7-.8h-5.5v5.5h5.5v-5.5z"/></g><g><path fill="#fcfcfa" d="M12.4 59h4.7v4.7h-4.7z"/><path fill="#e9f1f5" d="M16.8 59.4v4h-4v-4h4m.7-.8H12v5.5h5.5v-5.5z"/></g><g><path fill="#fcfcfa" d="M17.3 59H22v4.7h-4.7z"/><path fill="#e9f1f5" d="M21.7 59.4v4h-4v-4h4m.7-.8H17v5.5h5.5v-5.5h-.1z"/></g><g><path fill="#fcfcfa" d="M22.2 59h4.7v4.7h-4.7z"/><path fill="#e9f1f5" d="M26.6 59.4v4h-4v-4h4m.7-.8h-5.5v5.5h5.5v-5.5z"/></g><g><path fill="#fcfcfa" d="M27.1 59h4.7v4.7h-4.7z"/><path fill="#e9f1f5" d="M31.5 59.4v4h-4v-4h4m.7-.8h-5.5v5.5h5.5v-5.5z"/></g><g><path fill="#fcfcfa" d="M32 59h4.7v4.7H32z"/><path fill="#e9f1f5" d="M36.4 59.4v4h-4v-4h4m.7-.8h-5.5v5.5h5.5v-5.5z"/></g><g><path fill="#fcfcfa" d="M36.9 59h4.7v4.7h-4.7z"/><path fill="#e9f1f5" d="M41.3 59.4v4h-4v-4h4m.7-.8h-5.5v5.5H42v-5.5z"/></g><g><path fill="#fcfcfa" d="M41.8 59h4.7v4.7h-4.7z"/><path fill="#e9f1f5" d="M46.2 59.4v4h-4v-4h4m.7-.8h-5.5v5.5h5.5v-5.5z"/></g><g><path fill="#fcfcfa" d="M46.8 59h4.7v4.7h-4.7z"/><path fill="#e9f1f5" d="M51.1 59.4v4h-4v-4h4m.7-.8h-5.5v5.5h5.5v-5.5z"/></g></g><g id="_x35__2_"><path fill="#fcfcfa" d="M51.7 24.7h4.7v4.7h-4.7z"/><path fill="#e9f1f5" d="M56 25v4h-4v-4h4m.7-.7h-5.5v5.5h5.5v-5.5z"/><path fill="#fcfcfa" d="M56.6 24.7h4.7v4.7h-4.7z"/><path fill="#e9f1f5" d="M60.9 25v4h-4v-4h4m.8-.7h-5.5v5.5h5.5v-5.5z"/><path fill="#fcfcfa" d="M61.5 24.7h4.7v4.7h-4.7z"/><path fill="#e9f1f5" d="M65.8 25v4h-4v-4h4m.7-.7H61v5.5h5.5v-5.5z"/><path fill="#fcfcfa" d="M66.4 24.7h4.7v4.7h-4.7z"/><path fill="#e9f1f5" d="M70.7 25v4h-4v-4h4m.8-.7H66v5.5h5.5v-5.5z"/><path fill="#fcfcfa" d="M71.3 24.7H76v4.7h-4.7z"/><path fill="#e9f1f5" d="M75.6 25v4h-4v-4h4m.7-.7h-5.5v5.5h5.5v-5.5z"/><path fill="#fcfcfa" d="M51.7 29.6h4.7v4.7h-4.7z"/><path fill="#e9f1f5" d="M56 29.9v4h-4v-4h4m.7-.7h-5.5v5.5h5.5v-5.5z"/><path fill="#fcfcfa" d="M56.6 29.6h4.7v4.7h-4.7z"/><path fill="#e9f1f5" d="M60.9 29.9v4h-4v-4h4m.8-.7h-5.5v5.5h5.5v-5.5z"/><path fill="#fcfcfa" d="M61.5 29.6h4.7v4.7h-4.7z"/><path fill="#e9f1f5" d="M65.8 29.9v4h-4v-4h4m.7-.7H61v5.5h5.5v-5.5z"/><path fill="#fcfcfa" d="M66.4 29.6h4.7v4.7h-4.7z"/><path fill="#e9f1f5" d="M70.7 29.9v4h-4v-4h4m.8-.7H66v5.5h5.5v-5.5z"/><path fill="#fcfcfa" d="M71.3 29.6H76v4.7h-4.7z"/><path fill="#e9f1f5" d="M75.6 29.9v4h-4v-4h4m.7-.7h-5.5v5.5h5.5v-5.5z"/><path fill="#fcfcfa" d="M51.7 34.5h4.7v4.7h-4.7z"/><path fill="#e9f1f5" d="M56 34.8v4h-4v-4h4m.7-.7h-5.5v5.5h5.5v-5.5z"/><path fill="#fcfcfa" d="M56.6 34.5h4.7v4.7h-4.7z"/><path fill="#e9f1f5" d="M60.9 34.8v4h-4v-4h4m.8-.7h-5.5v5.5h5.5v-5.5z"/><path fill="#fcfcfa" d="M61.5 34.5h4.7v4.7h-4.7z"/><path fill="#e9f1f5" d="M65.8 34.8v4h-4v-4h4m.7-.7H61v5.5h5.5v-5.5z"/><path fill="#fcfcfa" d="M66.4 34.5h4.7v4.7h-4.7z"/><path fill="#e9f1f5" d="M70.7 34.8v4h-4v-4h4m.8-.7H66v5.5h5.5v-5.5z"/><path fill="#fcfcfa" d="M71.3 34.5H76v4.7h-4.7z"/><path fill="#e9f1f5" d="M75.6 34.8v4h-4v-4h4m.7-.7h-5.5v5.5h5.5v-5.5z"/><path fill="#fcfcfa" d="M51.7 39.4h4.7v4.7h-4.7z"/><path fill="#e9f1f5" d="M56 39.7v4h-4v-4h4m.7-.7h-5.5v5.5h5.5V39z"/><path fill="#fcfcfa" d="M56.6 39.4h4.7v4.7h-4.7z"/><path fill="#e9f1f5" d="M60.9 39.7v4h-4v-4h4m.8-.7h-5.5v5.5h5.5V39z"/><path fill="#fcfcfa" d="M61.5 39.4h4.7v4.7h-4.7z"/><path fill="#e9f1f5" d="M65.8 39.7v4h-4v-4h4m.7-.7H61v5.5h5.5V39z"/><path fill="#fcfcfa" d="M66.4 39.4h4.7v4.7h-4.7z"/><path fill="#e9f1f5" d="M70.7 39.7v4h-4v-4h4m.8-.7H66v5.5h5.5V39z"/><g><path fill="#fcfcfa" d="M71.3 39.4H76v4.7h-4.7z"/><path fill="#e9f1f5" d="M75.6 39.7v4h-4v-4h4m.7-.7h-5.5v5.5h5.5V39z"/></g><g><path fill="#fcfcfa" d="M51.7 44.3h4.7V49h-4.7z"/><path fill="#e9f1f5" d="M56 44.7v4h-4v-4h4m.7-.8h-5.5v5.5h5.5v-5.5z"/></g><g><path fill="#fcfcfa" d="M56.6 44.3h4.7V49h-4.7z"/><path fill="#e9f1f5" d="M60.9 44.7v4h-4v-4h4m.8-.8h-5.5v5.5h5.5v-5.5z"/></g><g><path fill="#fcfcfa" d="M61.5 44.3h4.7V49h-4.7z"/><path fill="#e9f1f5" d="M65.8 44.7v4h-4v-4h4m.7-.8H61v5.5h5.5v-5.5z"/></g><g><path fill="#fcfcfa" d="M66.4 44.3h4.7V49h-4.7z"/><path fill="#e9f1f5" d="M70.7 44.7v4h-4v-4h4m.8-.8H66v5.5h5.5v-5.5z"/></g><g><path fill="#fcfcfa" d="M71.3 44.3H76V49h-4.7z"/><path fill="#e9f1f5" d="M75.6 44.7v4h-4v-4h4m.7-.8h-5.5v5.5h5.5v-5.5z"/></g></g><g id="_x33__2_"><path fill="#fcfcfa" d="M61.5 49.2h4.7v4.7h-4.7z"/><path fill="#e9f1f5" d="M65.8 49.5v4h-3.9v-4h3.9m.7-.7h-5.4v5.5h5.4v-5.5z"/><path fill="#fcfcfa" d="M66.4 49.2h4.7v4.7h-4.7z"/><path fill="#e9f1f5" d="M70.7 49.5v4h-3.9v-4h3.9m.8-.7H66v5.5h5.4v-5.5h.1z"/><path fill="#fcfcfa" d="M71.3 49.2H76v4.7h-4.7z"/><path fill="#e9f1f5" d="M75.6 49.5v4h-3.9v-4h3.9m.7-.7h-5.4v5.5h5.4v-5.5z"/><path fill="#fcfcfa" d="M61.5 54.1h4.7v4.7h-4.7z"/><path fill="#e9f1f5" d="M65.8 54.4v4h-3.9v-4h3.9m.7-.7h-5.4v5.5h5.4v-5.5z"/><path fill="#fcfcfa" d="M66.4 54.1h4.7v4.7h-4.7z"/><path fill="#e9f1f5" d="M70.7 54.4v4h-3.9v-4h3.9m.8-.7H66v5.5h5.4v-5.5h.1z"/><path fill="#fcfcfa" d="M71.3 54.1H76v4.7h-4.7z"/><path fill="#e9f1f5" d="M75.6 54.4v4h-3.9v-4h3.9m.7-.7h-5.4v5.5h5.4v-5.5z"/><path fill="#fcfcfa" d="M61.5 58.9h4.7v4.7h-4.7z"/><path fill="#e9f1f5" d="M65.8 59.3v4h-3.9v-4h3.9m.7-.7h-5.4V64h5.4v-5.4z"/><g><path fill="#fcfcfa" d="M66.4 58.9h4.7v4.7h-4.7z"/><path fill="#e9f1f5" d="M70.7 59.3v4h-3.9v-4h3.9m.8-.7H66V64h5.4v-5.4h.1z"/></g><g><path fill="#fcfcfa" d="M71.3 58.9H76v4.7h-4.7z"/><path fill="#e9f1f5" d="M75.6 59.3v4h-3.9v-4h3.9m.7-.7h-5.4V64h5.4v-5.4z"/></g></g><g id="_x32__2_"><path fill="#fcfcfa" d="M51.7 54.1h4.7v4.7h-4.7z"/><path fill="#e9f1f5" d="M56 54.4v4h-4v-4h4m.7-.7h-5.4v5.5h5.4v-5.5z"/><path fill="#fcfcfa" d="M56.6 54.1h4.7v4.7h-4.7z"/><path fill="#e9f1f5" d="M60.9 54.4v4H57v-4h3.9m.7-.7h-5.4v5.5h5.4v-5.5z"/><path fill="#fcfcfa" d="M51.7 58.9h4.7v4.7h-4.7z"/><path fill="#e9f1f5" d="M56 59.3v4h-4v-4h4m.7-.7h-5.4V64h5.4v-5.4z"/><g><path fill="#fcfcfa" d="M56.6 58.9h4.7v4.7h-4.7z"/><path fill="#e9f1f5" d="M60.9 59.3v4H57v-4h3.9m.7-.7h-5.4V64h5.4v-5.4z"/></g></g><g id="_x31__2_"><path fill="#fcfcfa" d="M51.7 49.2h4.7v4.7h-4.7z"/><path fill="#e9f1f5" d="M56 49.5v4h-4v-4h4m.7-.7h-5.5v5.5h5.5v-5.5z"/><path fill="#fcfcfa" d="M56.6 49.2h4.7v4.7h-4.7z"/><path fill="#e9f1f5" d="M60.9 49.5v4h-4v-4h4m.8-.7h-5.5v5.5h5.5v-5.5z"/></g><path fill="#235973" d="M50.8 25.3v37.8H13.1V25.3h37.7m1-1H12.1v39.8h39.8V24.3h-.1z"/><path fill="#235973" d="M75.3 25.3v23.1h-23V25.3h23m1-1h-25v25.1h25.1V24.3h-.1z"/><path fill="#235973" d="M75.3 49.8V63H62.1V49.8h13.2m1-1H61.1V64h15.2V48.8z"/><path fill="#235973" d="M50.7 63.5h15.7v.6H50.7zm-36.6.6h-2c0-21.9 17.8-39.7 39.7-39.7v2c-20.7 0-37.7 16.9-37.7 37.7z"/><path fill="#235973" d="M76.2 49.3h-2c0-12.7-10.3-23-23-23v-2c13.9.1 25 11.3 25 25z"/><path fill="#235973" d="M61.1 63.9v-2c7.2 0 13.1-5.9 13.1-13.1h2c0 8.4-6.7 15.1-15.1 15.1z"/><path fill="#235973" d="M61.6 63.9c-5.7 0-10.3-4.6-10.3-10.2h2c0 4.5 3.7 8.2 8.3 8.2v2z"/><path fill="#235973" d="M53.4 54.2h-2c0-2.9 2.4-5.3 5.3-5.3v2c-1.8 0-3.3 1.5-3.3 3.3zM32.6 43.8c.5.3.9.6.9 1.2 0 .8-.7 1.4-1.7 1.4s-1.5-.5-1.5-1.2c0-.6.4-.9.8-1.1-.4-.2-.7-.6-.7-1.2 0-.7.6-1.3 1.5-1.3s1.5.4 1.5 1.1c0 .5-.4.8-.8 1.1zm-1 .5c-.3.2-.5.5-.5.9 0 .5.3.8.8.8.4 0 .7-.3.7-.7 0-.5-.5-.7-1-1zm.3-2.3c-.4 0-.6.2-.6.6 0 .4.4.7.9.9.2-.2.4-.4.4-.8-.1-.4-.3-.7-.7-.7zm31.6-2.9c-.9 0-1.3-.3-1.3-.7 0-.3.2-.5.5-.5.1 0 .2 0 .3.1l.3.7h.3c.5 0 .7-.4.7-1s-.3-.9-.7-.9c-.3 0-.6.1-.7.3l-.4-.1.3-2.6h2.4v.8h-1.9l-.1 1.1c.2-.2.5-.2.9-.2.8 0 1.4.4 1.4 1.3-.2 1.1-.9 1.7-2 1.7zm5.1 19.6c-.9 0-1.3-.3-1.3-.7 0-.3.2-.5.5-.5.1 0 .2 0 .3.1l.3.7h.3c.4 0 .7-.3.7-.9 0-.7-.5-.9-1.2-.9H68v-.4h.2c.6 0 1-.3 1-.8 0-.4-.2-.6-.7-.6-.3 0-.6.2-.9.5l-.3-.3c.4-.5.9-.8 1.5-.8.8 0 1.3.4 1.3 1.1 0 .5-.3.9-.9 1 .6.1 1 .5 1 1.1.1.7-.6 1.4-1.6 1.4zm-10.6.4c-.1.4-.2.8-.2 1.2H55v-.6l.9-.8c.6-.5.8-.8.8-1.1 0-.3-.2-.5-.5-.5s-.7.2-.9.6l-.3-.3c.3-.5.8-.9 1.5-.9s1.3.3 1.3 1c0 .5-.4.9-1.2 1.4l-.6.4h1c.3 0 .4-.1.5-.4h.5zm.9-5.8h-1.3v-.4h.4c.3 0 .4-.1.4-.4v-1.9l-.8.4-.1-.5c.5-.3 1-.5 1.5-.8h.4v2.7c0 .3.1.4.4.4h.4v.4c-.5.1-.8.1-1.3.1z"/><path fill="#235973" d="M51.4 53.7h10v.6h-10z"/><path transform="rotate(90 56.457 51.51)" fill="#235973" d="M54 51.2h5v.6h-5z"/></svg>