<svg aria-labelledby="title" id="Ebene_1" xmlns="http://www.w3.org/2000/svg" viewBox="0 0 88 88" role="img"><title id="title">Icon: Solitaire</title><path fill="#e9f1f5" d="M0 0h88v88H0z"/><path fill="#235973" d="M48.3 71.6c-1 1.2-2.7 1.4-3.9.4L22.8 54c-1.2-1-1.3-2.7-.3-3.9l27.8-33.8c1-1.2 2.7-1.4 3.9-.4l21.6 18c1.2 1 1.3 2.7.3 3.9L48.3 71.6z"/><path fill="#fff" d="M52.5 16c.4 0 .8.1 1.1.4l22.1 18.4c.4.3.6.7.6 1.2s-.1.9-.4 1.3L47.7 71.1c-.3.4-.8.6-1.3.6-.4 0-.8-.1-1.1-.4L23.2 52.9c-.7-.6-.8-1.7-.2-2.4l28.2-33.8c.3-.4.8-.7 1.3-.7m0-1.1c-.8 0-1.6.3-2.2 1L22.2 49.8c-1 1.2-.8 3 .4 4l22.1 18.4c.5.4 1.2.7 1.8.7.8 0 1.6-.3 2.2-1l28.2-33.8c1-1.2.8-3-.4-4L54.3 15.6c-.5-.5-1.2-.7-1.8-.7z"/><path fill="#235973" d="M48.5 70.9c-.8 1.3-2.5 1.8-3.8 1.1L20.3 58c-1.3-.8-1.8-2.5-1-3.8L41.1 16c.8-1.3 2.5-1.8 3.8-1.1l24.4 14c1.3.8 1.8 2.5 1 3.8L48.5 70.9z"/><path fill="#fff" d="M43.3 15.4c.3 0 .6.1.9.2l24.9 14.3c.8.5 1.1 1.5.6 2.3L47.9 70.5c-.3.5-.9.9-1.5.9-.3 0-.6-.1-.9-.2L20.6 56.9c-.4-.2-.7-.6-.8-1-.1-.4-.1-.9.2-1.3l21.9-38.2c.2-.6.8-1 1.4-1m0-1.1c-1 0-1.9.5-2.5 1.4L19 54c-.8 1.4-.3 3.1 1 3.9l25 14.2c.4.3.9.4 1.4.4 1 0 1.9-.5 2.5-1.4l21.9-38.2c.8-1.4.3-3.1-1-3.9L44.7 14.7c-.4-.2-.9-.4-1.4-.4z"/><path fill="#235973" d="M48.9 70.5c-.5 1.5-2.1 2.2-3.6 1.7l-26.8-9.6c-1.5-.5-2.2-2.1-1.7-3.6l14.6-41c.5-1.5 2.1-2.2 3.6-1.7l26.8 9.6c1.5.5 2.2 2.1 1.7 3.6l-14.6 41z"/><path fill="#fff" d="M34.2 17c.2 0 .4 0 .6.1l27 9.7c.4.2.8.5 1 .9.2.4.2.9.1 1.3L48 70.5c-.2.7-.9 1.1-1.6 1.1-.2 0-.4 0-.6-.1l-27-9.7c-.9-.3-1.4-1.3-1-2.2l14.9-41.4c.1-.7.8-1.2 1.5-1.2m0-1.1c-1.2 0-2.2.7-2.7 1.9L16.7 59.2c-.5 1.5.2 3.1 1.7 3.6l27 9.7c.3.1.6.2 1 .2 1.2 0 2.2-.7 2.7-1.9L64 29.4c.5-1.5-.2-3.1-1.7-3.6l-27-9.7c-.5-.1-.8-.2-1.1-.2z"/><path fill="#235973" d="M49 69.8c-.3 1.5-1.7 2.5-3.2 2.3l-27.3-4.8c-1.5-.3-2.5-1.7-2.3-3.2l7.4-42.6c.3-1.5 1.7-2.5 3.2-2.3L54.1 24c1.9.3 2.5 1.7 2.3 3.2L49 69.8z"/><path fill="#fff" d="M26 20.1h.3l27.8 4.8c.4.1 1.7.3 1.4 2L48 70c-.1.8-.9 1.4-1.7 1.4H46l-27.8-4.9c-.5-.1-.8-.3-1.1-.7-.3-.4-.4-.8-.3-1.3l7.4-43c.2-.8.9-1.4 1.8-1.4m0-1.1c-1.3 0-2.5 1-2.8 2.3l-7.4 43c-.3 1.5.8 3 2.3 3.3l27.8 4.9h.5c1.3 0 2.5-1 2.8-2.3l7.4-43c.3-1.5-.4-2.9-2.3-3.3L26.4 19H26z"/><path fill="#fff" d="M49.3 69.9c0 1.6-1.3 2.8-2.8 2.8l-28.7.1c-1.6 0-2.8-1.3-2.8-2.8l-.2-44c0-1.6 1.3-2.8 2.8-2.8l28.7-.1c1.6 0 2.8 1.3 2.8 2.8l.2 44z"/><path fill="#235973" d="M17.8 73.1c-1.7 0-3.1-1.4-3.1-3.1l-.2-44c0-.8.3-1.6.9-2.2.6-.6 1.4-.9 2.2-.9l28.7-.1c1.7 0 3.1 1.4 3.1 3.1l.2 44c0 .8-.3 1.6-.9 2.2-.6.6-1.4.9-2.2.9l-28.7.1zm28.5-49.7l-28.7.1c-.7 0-1.3.3-1.8.8-.5.4-.8 1.1-.8 1.7l.2 44c0 1.4 1.1 2.5 2.5 2.5l28.7-.1c1.4 0 2.5-1.2 2.5-2.6l-.2-44c.2-1.3-1-2.4-2.4-2.4z"/><path fill="#235973" d="M37.4 51.2c-2.1 0-3.9 1.8-3.9 4 0 1.2.6 2.4 1.5 3.1.3.2.2.5-.1.3-.6-.3-1.2-.5-1.8-.5-2.1 0-3.7 1.7-3.7 3.8 0 2.1 1.7 3.8 3.7 3.8 1.4 0 2.6-.8 3.2-1.9.1-.1.1-.3.2-.3s.2.2.2.5c0 1.4-.6 3-1.4 4.8.4-.1 1.5-.3 2.2-.3.7 0 1.9.2 2.2.3-.9-1.8-1.4-3.4-1.5-4.8 0-.3.1-.5.2-.5s.1.2.2.3c.7 1.1 1.9 1.9 3.2 1.9 2.1 0 3.7-1.7 3.7-3.8 0-2.1-1.7-3.8-3.7-3.8-.7 0-1.3.2-1.8.5-.3.2-.4-.1-.1-.3.9-.7 1.4-1.8 1.4-3.1 0-2.3-1.7-4-3.9-4zM26.8 34.5h-4.2l-.2.6c-.5 1.2-.7 1.8-.7 2.3 0 .5.3.8 1.1.8v.7c-.6 0-1.3-.1-1.9-.1-.6 0-1.2 0-1.9.1v-.7c.8 0 1.3-.4 2.5-3.2l3.2-7.9h.9l4 9.9c.4.9.6 1.2 1.6 1.2v.7c-.7 0-1.5-.1-2.2-.1-.7 0-1.5 0-2.2.1v-.7c1 0 1.2-.1 1.2-.5 0-.1-.1-.3-.1-.5l-1.1-2.7zm-3.8-.8h3.6l-1.8-4.6-1.8 4.6z"/></svg>