<svg aria-labelledby="title" id="Ebene_1" xmlns="http://www.w3.org/2000/svg" viewBox="0 0 88 88" role="img"><title id="title">Icon: Doppel</title><path fill="#f2f1ec" d="M0 0h88v88H0z"/><path fill="#e9f1f5" d="M0 0h88v88H0z"/><path fill="#235973" d="M13.9 14.5H30v16.1H13.9z"/><path fill="#fcfcfa" d="M35.8 15h15.1v15.1H35.8z"/><path fill="#235973" d="M50.4 15.5v14.1H36.3V15.5h14.1m1-1H35.3v16.1h16.1V14.5zm5.2 0h16.1v16.1H56.6zM13.9 35.8H30v16.1H13.9zm21.4 0h16.1v16.1H35.3zm21.3 0h16.1v16.1H56.6zM13.9 57.1H30v16.1H13.9zm21.4 0h16.1v16.1H35.3z"/><path fill="#fcfcfa" d="M57.1 57.6h15.1v15.1H57.1z"/><path fill="#235973" d="M71.7 58.1v14.1H57.6V58.1h14.1m1-1H56.6v16.1h16.1V57.1zM43.3 16.8l1.3 4h4.2l-3.4 2.4 1.3 4-3.4-2.4-3.3 2.4 1.3-4-3.4-2.4h4.2z"/><path fill="#235973" d="M64.8 59.7l1.3 4h4.1l-3.3 2.4 1.3 4-3.4-2.5-3.4 2.5 1.3-4-3.4-2.4h4.2z"/></svg>