<svg aria-labelledby="title" xmlns="http://www.w3.org/2000/svg" viewBox="0 0 88 88" role="img"><title id="title">Icon: Wortblitz</title><path fill="#E9F1F5" d="M0 0h88v88H0z"/><path fill="#235973" d="M14.5 35.5h16.7v16.7H14.5z"/><path fill="#FFF" d="M15 36.1h15.6v15.6H15z"/><path fill="#235973" d="M57.1 14.2h16.7v16.7H57.1z"/><path fill="#FFF" d="M57.7 14.8h15.6v15.6H57.7z"/><path fill="#235973" d="M52.2 14.5H36.1v16.1h16.1V14.5z"/><path fill="#FFF" d="M51.7 15v15.1H36.6V15h15.1"/><path fill="#235973" d="M14.5 14.2h16.7v16.7H14.5z"/><path fill="#FFF" d="M15 14.8h15.6v15.6H15z"/><path fill="#235973" d="M35.8 56.5h16.7v16.7H35.8zm37.7.6H57.4v16.2h16.1V57.1zm-59-.2h16.7v16.7H14.5zm42.6-21.7h16.7v16.7H57.1zm-21.3 0h16.7v16.7H35.8zm-10.1-15v-1.1h2.9v1.1h-.7c-.4 2-1 4.2-1.6 6.5h-2.1l-.8-3.1c-.2-.7-.4-2-.6-2.9-.1.9-.4 2.1-.6 2.9l-.8 3.1h-2.1c-.6-2.2-1.1-4.4-1.6-6.5H17v-1.1h3.1v1.1h-.9c.2.8.4 1.6.6 2.6.2.8.4 1.7.6 2.6.2-1 .4-1.9.7-2.9l.9-3.4h1.8l.8 3.4c.3 1 .5 1.9.7 2.9.2-.9.4-1.8.6-2.6l.6-2.6h-.8zm15 2.8c0-2.5 1.1-4.1 3.5-4.1 2.2 0 3.4 1.3 3.4 3.8s-1.1 4.1-3.5 4.1c-2.2 0-3.4-1.3-3.4-3.8zm5.4-.2c0-1.8-.7-2.7-1.9-2.7s-1.9 1-1.9 2.8c0 1.8.7 2.7 1.9 2.7s1.9-1 1.9-2.8zm19.1.7H64v2h.9v1.1h-3.3v-1.1h.9v-5.3h-.9v-1.1h3.7c1.9 0 2.8.7 2.8 2.1 0 1-.6 1.7-1.6 2.1l1.4 2.3h.8v1.1c-.3 0-.6.1-1 .1-.9 0-1.2-.2-1.5-1l-1-2.3zm-.1-1.1c1 0 1.5-.4 1.5-1.1 0-.7-.4-1.1-1.4-1.1H64v2.2h1.1zM26.2 42.3H25l-.1-1.5h-1.4v5.3l1.2.1v1.1h-3.9v-1.1l1.2-.1v-5.3h-1.4l-.1 1.5h-1.2v-2.6h6.9v2.6z"/><path fill="#FFF" d="M44.3 39.7c1.9 0 2.8.6 2.8 1.9 0 .9-.5 1.4-1.2 1.7 1 .2 1.6.7 1.6 1.7 0 1.5-1.1 2.3-3.1 2.3h-3.7v-1.1h.9v-5.3h-.9v-1.1h3.6zm-.1 3.2c.9 0 1.3-.4 1.3-1 0-.7-.4-1-1.4-1H43v2h1.2zm.1 3.3c1 0 1.5-.4 1.5-1.1 0-.7-.4-1.1-1.6-1.1H43v2.2h1.3zm18.4 1.1v-1.1h.9v-5.3h-.9v-1.1h3.5v1.1h-1.1v5.3h2l.1-1.5h1.2v2.6h-5.7zM21 68.6v-1.1h.9v-5.3H21v-1.1h3.3v1.1h-.9v5.3h.9v1.1H21zm26.8-5h-1.2l-.1-1.5h-1.4v5.3l1.2.1v1.1h-3.9v-1.1l1.2-.1v-5.3h-1.4l-.1 1.5h-1.2V61h6.9v2.6zm16.7 4h2.7l.1-1.3h1.2v2.4h-5.8v-1l3.8-5.4H64l-.1 1.2h-1.2v-2.4h5.5v1.1l-3.7 5.4z"/></svg>