<svg aria-labelledby="title" id="Ebene_1" xmlns="http://www.w3.org/2000/svg" viewBox="0 0 88 88" role="img"><title id="title">Icon: Skiracer</title><path fill="#e9f1f5" d="M0 0h88v88H0z"/><path fill="#235973" d="M40.4 68.6c1.5-3.7 17-43.5 17-43.5s13.5 38.7 15 43.5c1.5 4.9-33.7 4.6-32 0z"/><path fill="#e9f1f5" d="M44 59.4l13.4-34.3 10.9 31.8-4.1-5.9-3 9.3-3.4-10-5.3 6.8-.9-4.6z"/><path fill="#fff" d="M48.8 47l8.6-21.9 9 26.2-5.5-9.1-2.2 4.8-2.3-3.9-2.5 3.9-.1-6.2z"/><path fill="#235973" d="M15.9 71.2c2-5 23-58.9 23-58.9s18.2 52.3 20.3 58.9c2.1 6.5-45.5 6.2-43.3 0z"/><path fill="#e9f1f5" d="M20.7 58.8l18.2-46.5 14.8 43-5.6-8L44 59.9l-4.5-13.4-7.2 9.1-1.3-6.2z"/><path fill="#fff" d="M27.3 41.9l11.6-29.6 12.2 35.4-7.4-12.3-3 6.5-3.2-5.2-3.4 5.2-.1-8.3z"/><path fill="#fff" d="M59.2 72.9v-1.6C66.8 71.1 71 70 71.6 69c.1-.1.1-.1 0-.2-1.3-4.1-11.5-33.2-14.3-41.4l-6.6 17-1.5-.6 8.2-21.1.7 2.1c.1.4 13.5 38.7 15 43.5.2.6.1 1.1-.3 1.6-1.5 2.4-9.2 2.9-13.6 3z"/><path fill="#fff" d="M38 77.1c-7.6 0-16.1-.7-20.4-2.4-3.2-1.3-3.2-3-2.9-3.9L38.9 9.1l1 2.9c.1.4 15 44.4 20.3 59.8l-.1.8c-.7 1.5-4 4.1-19 4.5-1-.1-2 0-3.1 0zm.8-61.6L16.9 71.6s.5 1.4 7.8 2.5c6 .8 14 1.1 21 .6 8.2-.6 11.5-1.9 12.3-2.7-4.7-13.5-15.9-46.5-19.2-56.5z"/><circle fill="#235973" cx="51" cy="21.1" r="1.8"/><path fill="#235973" d="M43.9 28.2l-1.7-2.3c-.2-.3-.1-.7.1-.9l5.6-4c.3-.2.7-.1.9.1l1.7 2.3c.2.3.1.7-.1.9l-5.6 4c-.3.3-.7.2-.9-.1z"/><path fill="#235973" d="M43.7 20.7c.1-.4.5-.7.9-.6l3.7.7c.4.1.7.5.6.9-.1.4-.5.7-.9.6l-3.7-.7c-.4-.1-.6-.5-.6-.9z"/><path fill="#235973" d="M44.2 20.3h.1c.4-.1.7.1.8.5l.9 3.8c.1.4-.1.7-.5.8h-.1c-.4.1-.7-.1-.8-.5l-.9-3.8c0-.4.2-.7.5-.8zm-2.3 5.1l.3-.2c.9-.6.8-.2 1.1.1l3.4 4.3c.3.3.2.8-.1 1.1l-.3.2c-.3.3-.8.2-1.1-.1l-3.4-4.3c-.3-.4-.2-.9.1-1.1z"/><path fill="#235973" d="M41 32.8v-.2c-.2-.4-.1-.9.3-1.1l4.2-2.3c.4-.2.9-.1 1.1.3l.1.2c.2.4.1.9-.3 1.1l-4.2 2.3c-.5.2-1 .1-1.2-.3zm6.9 5.1c-.3 0-.7-.1-.9-.3-.2-.2-.3-.5-.1-.7.2-.2.5-.3.7-.1.1.1.3.1.5.1s.3-.1.4-.2c.2-.2.5-.3.7-.1.2.2.3.5.1.7-.3.3-.6.6-1 .6h-.4z"/><path fill="#235973" d="M47.2 37.7c-.1 0-.2 0-.3-.1l-11.6-8.3c-.2-.2-.3-.5-.1-.7.2-.2.5-.3.7-.1l11.6 8.3c.2.2.3.5.1.7-.1.1-.2.2-.4.2zm-2.1-10.6c-.1 0-.2 0-.3-.1l-7.5-5.7c-.2-.2-.3-.5-.1-.7.2-.2.5-.3.7-.1l7.5 5.7c.2.2.3.5.1.7-.1.2-.3.2-.4.2zm.4-1.5c-.1 0-.2 0-.3-.1l-7.5-5.7c-.2-.2-.3-.5-.1-.7s.5-.3.7-.1l7.5 5.7c.2.2.3.5.1.7-.1.1-.2.2-.4.2z"/></svg>