<svg aria-labelledby="title" id="Ebene_1" xmlns="http://www.w3.org/2000/svg" viewBox="0 0 88 88" role="img"><title id="title">Icon: Exchange Classic</title><path fill="#f2f1ec" d="M0 0h88v88H0z"/><path fill="#e9f1f5" d="M0 0h88v88H0z"/><path fill="#235973" d="M44.6 69.4l14.1-34.6H30.6z"/><path fill="#235973" d="M44.6 69.4l-14-34.6H16.2zm0 0l14.1-34.6h14.5zm14.1-34.6l4.8-12.9 9.7 12.9zm0 0L44.6 21.9l-14 12.9zm-28.1 0l-4.9-12.9-9.5 12.9z"/><path fill="#235973" d="M63.5 21.9H44.6l14.1 12.9zm-37.8 0l4.9 12.9 14-12.9z"/><path fill="none" stroke="#fff" stroke-width="2" stroke-miterlimit="10" d="M44.6 69.4l28.6-34.6-9.7-12.9H25.7l-9.5 12.9z"/><path transform="rotate(-21.696 35.539 45.579)" fill="#fff" d="M35 19.9h1.1v51.4H35z"/><path transform="rotate(-68.28 54.086 45.583)" fill="#fff" d="M28.4 45h51.4v1.1H28.4z"/><path transform="matrix(1 -.00322 .00322 1 -.112 .144)" fill="#fff" d="M17 34.2h55.3v1.1H17z"/><path fill="#fff" d="M58.1 35.3L43.8 22.1l.8-.8 14.2 13.1z"/><path fill="#fff" d="M31 35.3l14.2-13.2-.7-.8-14.2 13.1z"/></svg>