<svg aria-labelledby="title" id="Ebene_1" xmlns="http://www.w3.org/2000/svg" viewBox="0 0 88 88" role="img"><title id="title">Icon: Exchange Challenge</title><path fill="#f2f1ec" d="M0 0h88v88H0z"/><path fill="#e9f1f5" d="M0 0h88v88H0z"/><path fill="#235973" stroke="#235973" stroke-miterlimit="10" d="M31.3 20.5l7.1 12.2h13l7.1-12.2z"/><path fill="#235973" stroke="#235973" stroke-miterlimit="10" d="M58.5 20.5l-7.1 12.2L58 44.1h14.2zm-7.1 34.9L58 44.1h14.2L58.5 67.7zM31.3 67.7h27.2l-7.1-12.3h-13zm.5-23.6l6.6-11.4-7.1-12.2-13.7 23.6z"/><path fill="#235973" stroke="#235973" stroke-miterlimit="10" d="M38.4 55.4l-7.1 12.3-13.7-23.6h14.2z"/><path fill="none" stroke="#fff" stroke-width="2" stroke-miterlimit="10" d="M58.5 20.5H31.3L17.6 44.1l13.7 23.6h27.2l13.7-23.6z"/><path fill="#fff" d="M51.4 32.7h-13l-6.6 11.4 6.6 11.3h13L58 44.1z"/><path transform="rotate(-59.41 44.55 44.223)" fill="#fff" d="M17.8 43.7h53.5v1.1H17.8z"/><path transform="rotate(-30.068 45.08 44.222)" fill="#fff" d="M44.5 17.5h1.1V71h-1.1z"/><path fill="#fff" d="M18.3 43.7h53.5v1.1H18.3z"/></svg>