<svg aria-labelledby="title" id="Ebene_1" xmlns="http://www.w3.org/2000/svg" viewBox="0 0 88 88" role="img"><title id="title">Icon: Rushtower</title><path fill="#e9f1f5" d="M0 0h88v88H0z"/><path d="M58 72.3H30c-3.3 0-6-2.7-6-6V33.9c0-3.3 2.7-6 6-6h28c3.3 0 6 2.7 6 6v32.3c0 3.4-2.7 6.1-6 6.1z" fill="#fff"/><path fill="#235973" d="M60.7 73.4H27.3c-2.4 0-4.4-2-4.4-4.4V31.2c0-2.4 2-4.4 4.4-4.4h33.4c2.4 0 4.4 2 4.4 4.4V69c0 2.4-2 4.4-4.4 4.4zM27.3 29c-1.2 0-2.2 1-2.2 2.2V69c0 1.2 1 2.2 2.2 2.2h33.4c1.2 0 2.2-1 2.2-2.2V31.2c0-1.2-1-2.2-2.2-2.2H27.3z"/><path fill="#235973" d="M50.4 69.4c-.9 0-1.6-.7-1.6-1.6V56.4c0-.9.7-1.6 1.6-1.6.9 0 1.6.7 1.6 1.6v11.4c0 .9-.7 1.6-1.6 1.6zm4.3 0c-.9 0-1.6-.7-1.6-1.6V56.4c0-.9.7-1.6 1.6-1.6.9 0 1.6.7 1.6 1.6v11.4c.1.9-.7 1.6-1.6 1.6zm-8.1-16.3c-.9 0-1.6-.7-1.6-1.6V40c0-.9.7-1.6 1.6-1.6.9 0 1.6.7 1.6 1.6v11.4c0 1-.7 1.7-1.6 1.7zm12 0c-.9 0-1.6-.7-1.6-1.6V40c0-.9.7-1.6 1.6-1.6.9 0 1.6.7 1.6 1.6v11.4c0 1-.7 1.7-1.6 1.7z"/><path fill="#235973" d="M48.7 41.8h7.6v16h-7.6z"/><path fill="#235973" d="M46.6 38.4h12v4.3h-12z"/><circle fill="#235973" cx="52.6" cy="34.7" r="3.1"/><path fill="#235973" d="M33.5 69.4c-.9 0-1.6-.7-1.6-1.6V56.4c0-.9.7-1.6 1.6-1.6.9 0 1.6.7 1.6 1.6v11.4c0 .9-.7 1.6-1.6 1.6zm4.3 0c-.9 0-1.6-.7-1.6-1.6V56.4c0-.9.7-1.6 1.6-1.6.9 0 1.6.7 1.6 1.6v11.4c.1.9-.7 1.6-1.6 1.6zm-8.1-16.3c-.9 0-1.6-.7-1.6-1.6V40c0-.9.7-1.6 1.6-1.6.9 0 1.6.7 1.6 1.6v11.4c0 1-.7 1.7-1.6 1.7zm12 0c-.9 0-1.6-.7-1.6-1.6V40c0-.9.7-1.6 1.6-1.6.9 0 1.6.7 1.6 1.6v11.4c0 1-.7 1.7-1.6 1.7z"/><path fill="#235973" d="M31.8 41.8h7.6v16h-7.6z"/><path fill="#235973" d="M29.7 38.4h12v4.3h-12z"/><circle fill="#235973" cx="35.7" cy="34.7" r="3.1"/><path fill="#235973" d="M34.3 24.6v-5.4L31 22.5v-3.9l4.7-4.7 4.6 4.7v3.9l-3.2-3.3v5.4zM54 14v5.4l3.2-3.2v3.9l-4.6 4.6-4.7-4.6v-3.9l3.3 3.2V14z"/></svg>