<svg aria-labelledby="title" id="Ebene_1" xmlns="http://www.w3.org/2000/svg" viewBox="0 0 88 88" role="img"><title id="title">Icon: Power of 2</title><path fill="#f2f1ec" d="M0 0h88v88H0z"/><path fill="#e9f1f5" d="M0 0h88v88H0z"/><path fill="#fff" d="M14.7 14.5h16.1v16.1H14.7z"/><path fill="#235973" d="M31.2 30.9H14.5V14.2h16.7v16.7zM15 30.4h15.6V14.8H15v15.6z"/><path fill="#fff" d="M36.1 14.5h16.1v16.1H36.1z"/><path fill="#235973" d="M51.7 15v15h-15V15h15m.5-.5H36.1v16.1h16.1V14.5z"/><path fill="#fff" d="M57.4 14.5h16.1v16.1H57.4z"/><path fill="#235973" d="M73.8 30.9H57.1V14.2h16.7v16.7zm-16.1-.5h15.6V14.8H57.7v15.6z"/><path fill="#fff" d="M14.7 35.8h16.1v16.1H14.7z"/><path fill="#235973" d="M31.2 52.2H14.5V35.5h16.7v16.7zM15 51.7h15.6V36.1H15v15.6z"/><path fill="#fff" d="M36.1 35.5h16.1v16.1H36.1z"/><path fill="#235973" d="M52.5 51.9H35.8V35.2h16.7v16.7zm-16.2-.6h15.6V35.8H36.3v15.5z"/><path fill="#fff" d="M57.4 35.5h16.1v16.1H57.4z"/><path fill="#235973" d="M73.8 51.9H57.1V35.2h16.7v16.7zm-16.1-.6h15.6V35.8H57.7v15.5z"/><path fill="#fff" d="M14.7 57.1h16.1v16.1H14.7z"/><path fill="#235973" d="M31.2 73.6H14.5V56.9h16.7v16.7zM15 73h15.6V57.4H15V73z"/><path fill="#fff" d="M36.1 56.8h16.1v16.1H36.1z"/><path fill="#235973" d="M52.5 73.2H35.8V56.5h16.7v16.7zm-16.2-.5h15.6V57.1H36.3v15.6z"/><path fill="#fff" d="M57.4 57.1h16.1v16.1H57.4z"/><path fill="#235973" d="M73 57.7v15H58v-15h15m.5-.6H57.4v16.1h16.1V57.1zM20 25.5c1.3-2.6 3.9-2.6 3.9-4.2 0-.6-.3-1.1-1.1-1.1s-1.2.5-1.1 1.6h-1.5c-.2-1.9 1-2.8 2.8-2.8 1.8 0 2.6.8 2.6 2.1 0 2.3-2.9 2.5-3.7 4.3h3.9l-.1 1.3H20v-1.2zM41.3 25.5c1.3-2.6 3.9-2.6 3.9-4.2 0-.6-.3-1.1-1.1-1.1s-1.2.5-1.1 1.6h-1.5c-.2-1.9 1-2.8 2.8-2.8 1.8 0 2.6.8 2.6 2.1 0 2.3-2.9 2.5-3.7 4.3h3.9l-.1 1.3h-5.5v-1.2zM63.5 19.1v6.4h1.7v1.1H60v-1.1h1.9v-5.1l-1.5.6-.4-1.1 2.1-.9h1.4zm3.5 3.3c.5-.2 1.2-.4 1.9-.4 1.6 0 2.4.7 2.4 2.1 0 1.7-1.1 2.7-3 2.7-2.1 0-3-1.1-3-3.8 0-2.8 1.2-4.1 3.3-4.1 1.7 0 2.6.8 2.5 2.2l-1.5.1c0-.8-.4-1.1-1.1-1.1-1 0-1.4.9-1.5 2.3zm0 1.1c.1 1.4.4 2.2 1.5 2.2.7 0 1.3-.4 1.3-1.4 0-.8-.4-1.2-1.3-1.2-.5 0-1 .2-1.5.4zM44 39.7h2.3v4.4h1.3v1.2h-1.3v1h.8v1h-3.4v-1h1.1v-1H41v-1.1l3-4.5zm.9 4.4v-3.4h-.1l-2.2 3.4h2.3zM63.7 39.7v6.4h1.7v1.1h-5.1v-1.1h1.9V41l-1.6.6-.4-1.1 2.1-.9h1.4zm3.5 3.3c.5-.2 1.2-.4 1.9-.4 1.6 0 2.4.7 2.4 2.1 0 1.7-1.1 2.7-3 2.7-2.1 0-3-1.1-3-3.8 0-2.8 1.2-4.1 3.3-4.1 1.7 0 2.6.8 2.5 2.2l-1.5.1c0-.8-.4-1.1-1.1-1.1-1 0-1.4.9-1.5 2.3zm0 1.1c.1 1.4.4 2.2 1.5 2.2.7 0 1.3-.4 1.3-1.4 0-.8-.4-1.2-1.3-1.2-.5 0-1 .2-1.5.4zM22.6 61.1h2.3v4.4h1.3v1.2h-1.3v1h.8v1h-3.4v-1h1.1v-1h-3.8v-1.1l3-4.5zm.8 4.3V62h-.1l-2.2 3.4h2.3z"/><g><path fill="#235973" d="M60.6 64.5c.5-.2 1.2-.4 1.9-.4 1.6 0 2.4.7 2.4 2.1 0 1.7-1.1 2.7-3 2.7-2.1 0-3-1.1-3-3.8 0-2.8 1.2-4.1 3.3-4.1 1.7 0 2.6.8 2.5 2.2l-1.5.1c0-.8-.4-1.1-1.1-1.1-1 0-1.4.9-1.5 2.3zm0 1c.1 1.4.4 2.2 1.5 2.2.7 0 1.3-.4 1.3-1.4 0-.8-.4-1.2-1.3-1.2-.5.1-1 .3-1.5.4zm7.8-4.3h2.3v4.4H72v1.2h-1.3v1h.8v1h-3.4v-1h1.1v-1h-3.8v-1.1l3-4.5zm.9 4.3v-3.4h-.1L67 65.5h2.3z"/></g></svg>