<svg aria-labelledby="title" id="Ebene_1" xmlns="http://www.w3.org/2000/svg" viewBox="0 0 88 88" role="img"><title id="title">Icon: Mahjong</title><path fill="#f2f1ec" d="M0 0h88v88H0z"/><path fill="#e9f1f5" d="M0 0h88v88H0z"/><path fill="#235973" d="M33.7 41.1c0 .8-.7 1.5-1.5 1.5l-15.5.1c-.8 0-1.5-.7-1.5-1.5l-.1-23.8c0-.8.7-1.5 1.5-1.5l15.5-.1c.8 0 1.5.7 1.5 1.5l.1 23.8z"/><path fill="#235973" d="M33.4 16.5l-1-1.5-1.1.9 1.6 1.1z"/><path fill="#fff" d="M32.7 40c0 .8-.7 1.5-1.5 1.5l-15.5.1c-.8 0-1.5-.7-1.5-1.5l-.1-23.8c0-.8.7-1.5 1.5-1.5l15.5-.1c.8 0 1.5.7 1.5 1.5l.1 23.8z"/><path fill="#235973" d="M15.7 41.9c-.5 0-.9-.2-1.3-.5-.3-.3-.5-.8-.5-1.3l-.1-23.8c0-.5.2-.9.5-1.3.3-.3.8-.5 1.3-.5l15.5-.1c1 0 1.8.8 1.8 1.8L33 40c0 .5-.2.9-.5 1.3-.3.3-.8.5-1.3.5l-15.5.1zM31.1 15l-15.5.1c-.3 0-.6.1-.9.4-.2.2-.4.6-.4.9l.1 23.8c0 .7.6 1.2 1.2 1.2l15.5-.1c.3 0 .6-.1.9-.4.2-.2.4-.6.4-.9l-.1-23.8c0-.3-.1-.6-.4-.9-.2-.2-.5-.3-.8-.3z"/><path fill="#235973" d="M15.8 42.3l-1.2-.8 1-.1zm7.5-20l1.3 4h4.1l-3.3 2.4 1.3 4-3.4-2.5-3.4 2.5 1.3-4-3.4-2.4H22zm31.2 18.8c0 .8-.7 1.5-1.5 1.5l-15.5.1c-.8 0-1.5-.7-1.5-1.5l-.1-23.8c0-.8.7-1.5 1.5-1.5l15.5-.1c.8 0 1.5.7 1.5 1.5l.1 23.8z"/><path fill="#235973" d="M54.1 16.5l-1-1.5-1.1.9 1.7 1.1z"/><path fill="#fff" d="M53.4 40c0 .8-.7 1.5-1.5 1.5l-15.5.1c-.8 0-1.5-.7-1.5-1.5l-.1-23.8c0-.8.7-1.5 1.5-1.5l15.5-.1c.8 0 1.5.7 1.5 1.5l.1 23.8z"/><path fill="#235973" d="M36.4 41.9c-.5 0-.9-.2-1.3-.5-.3-.3-.5-.8-.5-1.3l-.1-23.8c0-1 .8-1.8 1.8-1.8l15.5-.1c1 0 1.8.8 1.8 1.8l.1 23.8c0 .5-.2.9-.5 1.3-.3.3-.8.5-1.3.5l-15.5.1zM51.8 15l-15.5.1c-.3 0-.6.1-.9.4-.2.2-.4.6-.4.9l.1 23.8c0 .3.1.6.4.9.2.2.5.4.9.4l15.5-.1c.3 0 .6-.1.9-.4.2-.2.4-.6.4-.9L53 16.3c0-.7-.5-1.3-1.2-1.3z"/><path fill="#b8b4a9" d="M36.5 42.3l-1.2-.8h1.1z"/><path fill="#235973" d="M75.2 41.1c0 .8-.7 1.5-1.5 1.5l-15.5.1c-.8 0-1.5-.7-1.5-1.5l-.1-23.8c0-.8.7-1.5 1.5-1.5l15.5-.1c.8 0 1.5.7 1.5 1.5l.1 23.8z"/><path fill="#235973" d="M74.8 16.5l-1-1.5-1.1.9 1.7 1.1z"/><path fill="#fff" d="M74.1 40c0 .8-.7 1.5-1.5 1.5l-15.5.1c-.8 0-1.5-.7-1.5-1.5l-.1-23.8c0-.8.7-1.5 1.5-1.5l15.5-.1c.8 0 1.5.7 1.5 1.5l.1 23.8z"/><path fill="#235973" d="M57.1 41.9c-.5 0-.9-.2-1.3-.5-.3-.3-.5-.8-.5-1.3l-.1-23.8c0-.5.2-.9.5-1.3.3-.3.8-.5 1.3-.5l15.5-.1c1 0 1.8.8 1.8 1.8l.1 23.8c0 .5-.2.9-.5 1.3-.3.3-.8.5-1.3.5l-15.5.1zM72.5 15l-15.5.1c-.3 0-.6.1-.9.4-.2.2-.4.6-.4.9l.1 23.8c0 .3.1.6.4.9.2.2.5.4.9.4l15.5-.1c.3 0 .6-.1.9-.4s.4-.6.4-.9l-.1-23.8c0-.3-.1-.6-.4-.9-.2-.3-.5-.4-.9-.4z"/><path fill="#b8b4a9" d="M57.3 42.4l-1.2-.9 1.1.1z"/><path fill="#235973" d="M33.7 71.6c0 .8-.7 1.5-1.5 1.5l-15.5.1c-.8 0-1.5-.7-1.5-1.5L15.1 48c0-.8.7-1.5 1.5-1.5l15.5-.1c.8 0 1.5.7 1.5 1.5l.1 23.7z"/><path fill="#b8b4a9" d="M33.4 47l-1-1.4-1.1.9 1.6 1z"/><path d="M32.7 70.6c0 .8-.7 1.5-1.5 1.5l-15.5.1c-.8 0-1.5-.7-1.5-1.5l-.1-23.8c0-.8.7-1.5 1.5-1.5l15.5-.1c.8 0 1.5.7 1.5 1.5l.1 23.8z" fill="#fcfcfa"/><path fill="#235973" d="M15.7 72.5c-.5 0-.9-.2-1.3-.5-.3-.3-.5-.8-.5-1.3l-.1-23.8c0-.5.2-.9.5-1.3.3-.3.8-.5 1.3-.5l15.5-.1c.5 0 .9.2 1.3.5.3.3.5.8.5 1.3l.1 23.8c0 .5-.2.9-.5 1.3s-.8.5-1.3.5l-15.5.1zm15.4-26.9l-15.5.1c-.3 0-.6.1-.9.4-.2.2-.4.6-.4.9l.1 23.8c0 .3.1.6.4.9.2.2.5.4.9.4l15.5-.1c.3 0 .6-.1.9-.4.2-.2.4-.6.4-.9l-.1-23.8c-.1-.7-.6-1.3-1.3-1.3z"/><path fill="#235973" d="M15.9 73l-1.2-.8h1.2zm10.6-7.1h-5.6c-.8 0-1.5-.7-1.5-1.6v-3.5h2.8v2.7h3.1v-3.9h-5.9v-6.5c0-.8.7-1.5 1.5-1.5h5.6c.8 0 1.5.7 1.5 1.5V56h-2.8v-2h-3.1v3.3H28v7.1c0 .8-.6 1.5-1.5 1.5zM54.5 71.6c0 .8-.7 1.5-1.5 1.5l-15.5.1c-.8 0-1.5-.7-1.5-1.5L35.8 48c0-.8.7-1.5 1.5-1.5l15.5-.1c.8 0 1.5.7 1.5 1.5l.2 23.7z"/><path fill="#b8b4a9" d="M54.1 47l-1-1.4-1.1.9 1.7 1z"/><path fill="#fff" d="M53.4 70.6c0 .8-.7 1.5-1.5 1.5l-15.5.1c-.8 0-1.5-.7-1.5-1.5l-.1-23.8c0-.8.7-1.5 1.5-1.5l15.5-.1c.8 0 1.5.7 1.5 1.5l.1 23.8z"/><path fill="#235973" d="M36.4 72.5c-1 0-1.8-.8-1.8-1.8l-.1-23.8c0-1 .8-1.8 1.8-1.8l15.5-.1c.5 0 .9.2 1.3.5.3.3.5.8.5 1.3l.1 23.8c0 .5-.2.9-.5 1.3-.3.3-.8.5-1.3.5l-15.5.1zm15.4-26.9l-15.5.1c-.7 0-1.2.6-1.2 1.3l.1 23.8c0 .3.1.6.4.9.2.2.5.4.9.4L52 72c.3 0 .6-.1.9-.4.2-.2.4-.6.4-.9L53 46.8c0-.6-.5-1.2-1.2-1.2z"/><path fill="#235973" d="M36.5 72.9l-1.1-.8h1.2zm7.8-19.2l1.3 4h4.2l-3.4 2.4 1.3 4-3.4-2.5-3.3 2.5 1.2-4-3.3-2.4H43zM75.2 71.6c0 .8-.7 1.5-1.5 1.5l-15.5.1c-.8 0-1.5-.7-1.5-1.5L56.5 48c0-.8.7-1.5 1.5-1.5l15.5-.1c.8 0 1.5.7 1.5 1.5l.2 23.7z"/><path fill="#235973" d="M74.8 47l-1-1.4-1.1.9 1.7 1z"/><path fill="#fff" d="M74.1 70.6c0 .8-.7 1.5-1.5 1.5l-15.5.1c-.8 0-1.5-.7-1.5-1.5l-.1-23.8c0-.8.7-1.5 1.5-1.5l15.5-.1c.8 0 1.5.7 1.5 1.5l.1 23.8z"/><path fill="#235973" d="M57.1 72.5c-1 0-1.8-.8-1.8-1.8l-.1-23.8c0-1 .8-1.8 1.8-1.8l15.5-.1c.5 0 .9.2 1.3.5.3.3.5.8.5 1.3l.1 23.8c0 .5-.2.9-.5 1.3-.3.3-.8.5-1.3.5l-15.5.1zm15.4-26.9l-15.5.1c-.7 0-1.2.6-1.2 1.3l.1 23.8c0 .3.1.6.4.9.2.2.5.4.9.4l15.5-.1c.3 0 .6-.1.9-.4.2-.2.4-.6.4-.9l-.1-23.8c-.1-.7-.7-1.3-1.4-1.3z"/><path fill="#235973" d="M57.2 72.9l-1-.7h1zM65.3 64.5l-.1-10.4s7 3.1 2.9 6.9l.1.2s3.1-2.1 1.6-4.9c-1.5-2.9-4.6-4.3-4.6-4.3l-.8-.4.1 11.7.8 1.2z"/><path fill="#235973" d="M65.4 64.4c0 1.2-1.1 2.3-2.6 2.4-1.5.1-2.7-.9-2.8-2.2 0-1.2 1.1-2.3 2.6-2.4 1.5 0 2.7.9 2.8 2.2z"/><g fill="#235973"><path d="M40.2 22.5l-1 1.1v1.2l1.2-.2.8-.8.1-1.3z"/><path d="M43.1 21.6l6.3 6.1 1.7 6.7-5.6-1.3-7.2-6.3 2-.3h.2l.2-.2 2-2 .2-.2v-.3l.2-2.2m0-1l-.7.6-.2 2.5-2 2-2.2.3-.6.8 7.8 6.9 6.9 1.6-2.1-8-6.9-6.7z"/><path transform="rotate(-42.413 47.783 31.273)" d="M44.5 30.9H51v.7h-6.5z"/><path transform="rotate(-44.903 43.452 29.077)" d="M43.1 24.5h.7v9.1h-.7z"/><path transform="rotate(-44.903 45.872 26.97)" d="M45.5 22.4h.7v9.1h-.7z"/><path d="M42.3 21.3l-.2 2.4-1.8 1.8-2.2.5v-2.3l2.4-2.4h1.8m.8-.7h-2.9l-2.8 2.8v3.4l3.3-.7 2.1-2.1.3-3.4z"/></g><g fill="#235973"><path d="M60.2 22.5l-1 1.1v1.2l1.2-.2.8-.8.1-1.3z"/><path d="M63.1 21.6l6.3 6.1 1.7 6.7-5.6-1.3-7.2-6.3 2-.3h.2l.2-.2 2-2 .2-.2v-.3l.2-2.2m0-1l-.7.6-.2 2.5-2 2-2.2.3-.6.8 7.8 6.9 6.9 1.6-2.1-8-6.9-6.7z"/><path transform="rotate(-42.413 67.79 31.273)" d="M64.6 30.9h6.5v.7h-6.5z"/><path d="M68.9 34.3l2-1.7s.8 2.2.7 2.2c-.1 0-2.7-.5-2.7-.5z"/><path transform="rotate(-44.903 63.46 29.077)" d="M63.1 24.5h.7v9.1h-.7z"/><path transform="rotate(-44.903 65.881 26.969)" d="M65.5 22.4h.7v9.1h-.7z"/><path d="M62.3 21.3l-.2 2.4-1.8 1.8-2.2.5v-2.3l2.4-2.4h1.8m.8-.7h-2.9l-2.8 2.8v3.4l3.3-.7 2.1-2.1.3-3.4z"/></g><g><path fill="#235973" d="M43 56.9c0 .8-.7 1.5-1.5 1.5l-15.5.1c-.8 0-1.5-.7-1.5-1.5l-.1-23.8c0-.8.7-1.5 1.5-1.5l15.5-.1c.8 0 1.5.7 1.5 1.5l.1 23.8z"/><path fill="#235973" d="M42.7 32.3l-1.1-1.5-1.1.9 1.7 1.1z"/><path fill="#fff" d="M42 55.8c0 .8-.7 1.5-1.5 1.5l-15.5.1c-.8 0-1.5-.7-1.5-1.5l-.1-23.8c0-.8.7-1.5 1.5-1.5l15.5-.1c.8 0 1.5.7 1.5 1.5l.1 23.8z"/><path fill="#235973" d="M24.9 57.7c-1 0-1.8-.8-1.8-1.8L23 32.1c0-.5.2-.9.5-1.3.3-.3.8-.5 1.3-.5l15.5-.1c.5 0 .9.2 1.3.5.3.3.5.8.5 1.3l.1 23.8c0 .5-.2.9-.5 1.3-.3.3-.8.5-1.3.5l-15.5.1zm15.4-26.9l-15.5.1c-.3 0-.6.1-.9.4-.2.2-.4.6-.4.9l.1 23.8c0 .7.6 1.2 1.2 1.2l15.5-.1c.7 0 1.2-.6 1.2-1.3L41.4 32c.2-.6-.4-1.2-1.1-1.2z"/><path fill="#235973" d="M25 58.1l-1.1-.8.9-.1z"/></g><g><path fill="#235973" d="M65.4 56.9c0 .8-.7 1.5-1.5 1.5l-15.5.1c-.8 0-1.5-.7-1.5-1.5l-.1-23.8c0-.8.7-1.5 1.5-1.5l15.5-.1c.8 0 1.5.7 1.5 1.5l.1 23.8z"/><path fill="#235973" d="M65 32.3l-1-1.5-1.1.9 1.7 1.1z"/><path fill="#fff" d="M64.3 55.8c0 .8-.7 1.5-1.5 1.5l-15.5.1c-.8 0-1.5-.7-1.5-1.5l-.1-23.8c0-.8.7-1.5 1.5-1.5l15.5-.1c.8 0 1.5.7 1.5 1.5l.1 23.8z"/><path fill="#235973" d="M47.3 57.7c-1 0-1.8-.8-1.8-1.8l-.1-23.8c0-.5.2-.9.5-1.3.3-.3.8-.5 1.3-.5l15.5-.1c1 0 1.8.8 1.8 1.8l.1 23.8c0 .5-.2.9-.5 1.3s-.8.5-1.3.5l-15.5.1zm15.4-26.9l-15.5.1c-.3 0-.6.1-.9.4-.2.2-.4.6-.4.9l.1 23.7c0 .3.1.6.4.9.2.2.6.4.9.4l15.5-.1c.7 0 1.2-.6 1.2-1.3L63.9 32c0-.6-.5-1.2-1.2-1.2z"/><path fill="#235973" d="M47.4 58.1l-1.2-.8 1-.1zm10.5-7h-5.6c-.8 0-1.5-.7-1.5-1.6V46h2.8v2.7h3.1v-3.9h-5.9v-6.5c0-.8.7-1.5 1.5-1.5h5.6c.8 0 1.5.7 1.5 1.5v2.9h-2.8v-2h-3.1v3.3h5.9v7.1c0 .9-.7 1.5-1.5 1.5z"/></g><path fill="#235973" d="M33.2 49.2l-.1-10.4s7 3.1 2.9 6.9l.1.2s3.1-2.1 1.6-4.9c-1.5-2.9-4.6-4.3-4.6-4.3l-.8-.4.1 11.7.8 1.2z"/><path fill="#235973" d="M33.2 49.1c0 1.2-1.1 2.3-2.6 2.4-1.5.1-2.7-.9-2.8-2.2 0-1.2 1.1-2.3 2.6-2.4 1.5 0 2.8 1 2.8 2.2z"/></svg>