<svg aria-labelledby="title" version="1.1" id="Ebene_1" xmlns="http://www.w3.org/2000/svg" x="0" y="0" viewBox="0 0 88 88" xml:space="preserve" role="img"><title id="title">Icon: Trivial Pursuit</title><path fill="#e9f1f5" d="M0 0h88v88H0z"/><path fill="#fff" d="M43.4 13.1c-17.3 0-31.3 14-31.3 31.3s14 31.3 31.3 31.3 31.3-14 31.3-31.3-14-31.3-31.3-31.3zm.2 53.9C31.1 67 21 56.8 21 44.4s10.1-22.6 22.6-22.6c12.5 0 22.6 10.1 22.6 22.6S56.1 67 43.6 67z"/><path fill="#fff" d="M19.7 40.7h47.6V48H19.7z"/><path fill="#fff" d="M52.3 66.8L28.5 25.6l6.3-3.7 23.8 41.2z"/><path fill="#fff" d="M58.8 25.7l-24.2 41-6.3-3.7 24.2-41z"/><path fill="#235973" d="M44.4 38.5c-.5-.3-1.3-.3-1.7 0L39 40.7c-.5.3-.9.9-.9 1.5v4.3c0 .5.4 1.2.9 1.5l3.7 2.2c.5.3 1.3.3 1.7 0l3.7-2.2c.5-.3.9-.9.9-1.5v-4.3c0-.5-.4-1.2-.9-1.5l-3.7-2.2zm-3.1 36.1c-.5-.1-.9-.6-.9-1.1l.6-4.9c.1-.5.6-1 1.1-.9 0 0 .9.1 1.3.1s1.4-.1 1.4-.1c.5-.1 1.1.3 1.1.9l.6 4.9c.1.5-.3 1-.9 1.1 0 0-1.3.1-2.3.1-.8 0-2-.1-2-.1zm9-32.3c0-.5.5-1 1-1h.8c.5 0 1 .5 1 1v4.1c0 .6-.5 1-1 1h-.8c-.5 0-1-.5-1-1v-4.1zm4.3 0c0-.5.5-1 1-1h.8c.5 0 1 .5 1 1v4.1c0 .5-.5 1-1 1h-.8c-.5 0-1-.5-1-1v-4.1zm4.2 0c0-.5.5-1 1-1h.8c.5 0 1 .5 1 1v4.1c0 .5-.5 1-1 1h-.8c-.6 0-1-.5-1-1v-4.1zm4.2 0c0-.6.5-1 1-1h.8c.6 0 1 .5 1 1v4.1c0 .5-.5 1-1 1H64c-.5 0-1-.5-1-1v-4.1zM49.1 74.2c-.5.1-1-.3-1.1-.8l-.6-4.9c-.1-.5.3-1.1.9-1.2 0 0 .9-.2 1.3-.3.4-.1 1.4-.4 1.4-.4.5-.2 1.1.1 1.3.6l1.9 4.6c.2.5 0 1.1-.6 1.3 0 0-1.2.5-2.2.7-1.1.2-2.3.4-2.3.4zm7.6-2.7c-.5.2-1.1 0-1.3-.5l-1.9-4.5c-.2-.5 0-1.1.5-1.3 0 0 .9-.4 1.2-.6.4-.2 1.2-.8 1.2-.8.4-.3 1.1-.2 1.4.2l3 3.9c.3.4.2 1.1-.2 1.4 0 0-1 .7-1.9 1.3-.9.4-2 .9-2 .9zm6.6-4.1c-.4.3-1.1.3-1.4-.2l-3-3.9c-.3-.4-.3-1.1.2-1.4 0 0 .7-.6 1-.9.3-.3 1-1.1 1-1.1.4-.4 1-.5 1.4-.1l3.9 3c.4.3.5 1 .1 1.4 0 0-.8 1-1.5 1.7s-1.7 1.5-1.7 1.5zm5.3-5.9c-.3.4-1 .5-1.4.2l-3.9-3c-.4-.3-.5-1-.2-1.4 0 0 .5-.8.8-1.1.2-.3.6-1.3.6-1.3.2-.5.8-.7 1.3-.5l4.5 1.9c.5.2.7.8.5 1.3 0 0-.5 1.2-1 2-.5.9-1.2 1.9-1.2 1.9zm3.6-7c-.2.5-.8.7-1.3.5l-4.6-1.8c-.5-.2-.8-.8-.6-1.3 0 0 .3-.9.4-1.3.1-.4.3-1.4.3-1.4.1-.5.6-.9 1.2-.9l4.9.6c.5.1.9.6.8 1.1 0 0-.2 1.3-.4 2.2-.2 1.1-.7 2.3-.7 2.3zm1.5-8c-.1.5-.6.9-1.1.9l-4.9-.6c-.5-.1-1-.6-.9-1.1 0 0 .1-.9.1-1.3s-.1-1.4-.1-1.4c-.1-.5.3-1.1.9-1.1l4.9-.6c.5-.1 1 .3 1.1.9 0 0 .1 1.3.1 2.3s-.1 2-.1 2zm-.3-7.9c.1.5-.3 1-.8 1.1l-4.9.6c-.5.1-1.1-.3-1.2-.9 0 0-.2-.9-.3-1.3-.1-.4-.4-1.4-.4-1.4-.2-.5.1-1.1.6-1.3l4.6-1.9c.5-.2 1.1 0 1.3.6 0 0 .5 1.2.7 2.2.2 1.1.4 2.3.4 2.3zm-2.5-7.5c.2.5 0 1.1-.5 1.3l-4.6 1.9c-.5.2-1.1 0-1.3-.5 0 0-.4-.9-.6-1.2-.2-.4-.8-1.2-.8-1.2-.3-.4-.2-1.1.2-1.4l3.9-3c.4-.3 1.1-.2 1.4.2 0 0 .7 1 1.3 1.9.5.9 1 2 1 2zm-4.4-6.7c.3.4.3 1.1-.2 1.4l-3.9 3c-.4.3-1.1.3-1.4-.1 0 0-.6-.7-.9-1s-1.1-.9-1.1-.9c-.4-.3-.5-1-.2-1.4l3-3.9c.3-.4 1-.5 1.4-.2 0 0 1 .8 1.7 1.5.8.7 1.6 1.6 1.6 1.6zm-5.8-5c.4.3.5 1 .2 1.4l-3 3.9c-.3.4-1 .5-1.4.2 0 0-.8-.5-1.1-.8s-1.4-.6-1.4-.6c-.5-.2-.7-.8-.5-1.3l1.9-4.5c.2-.5.8-.7 1.3-.5 0 0 1.2.5 2 1s2 1.2 2 1.2zm-7.1-3.7c.5.2.8.8.6 1.3l-1.9 4.6c-.2.5-.8.8-1.3.6 0 0-.9-.3-1.3-.4-.4-.1-1.4-.3-1.4-.3-.5-.1-.9-.6-.9-1.2l.6-4.9c.1-.5.6-.9 1.1-.8 0 0 1.3.2 2.2.4s2.3.7 2.3.7zm-7.8-1.6c.5.1.9.6.9 1.1l-.7 4.9c-.1.5-.6 1-1.1.9 0 0-.9-.1-1.3-.1s-1.4.1-1.4.1c-.6 0-1.1-.4-1.2-1l-.6-4.9c-.1-.5.3-1 .9-1.1 0 0 1.3-.1 2.3-.1.9 0 2.2.2 2.2.2zm-7.9.4c.5-.1 1 .3 1.1.8l.6 4.9c.1.5-.3 1.1-.9 1.2 0 0-.9.2-1.3.3-.4.1-1.4.4-1.4.4-.5.2-1.1-.1-1.3-.6L33 16.9c-.2-.5 0-1.1.6-1.3 0 0 1.2-.5 2.2-.7.9-.2 2.1-.4 2.1-.4zm-7.5 2.6c.5-.2 1.1 0 1.3.5l1.9 4.5c.2.5 0 1.1-.5 1.3 0 0-.9.4-1.2.6-.4.2-1.2.8-1.2.8-.4.3-1.1.2-1.4-.2l-3-3.9c-.3-.4-.2-1.1.2-1.4 0 0 1-.7 1.9-1.3s2-.9 2-.9zm-6.7 4.2c.4-.3 1.1-.3 1.4.2l3 3.9c.3.4.3 1.1-.2 1.4 0 0-.7.6-1 .9-.3.3-1 1.1-1 1.1-.4.4-1 .5-1.4.1l-3.9-3c-.4-.3-.5-1-.1-1.4 0 0 .8-1 1.5-1.7.8-.7 1.7-1.5 1.7-1.5zm-5.2 5.9c.3-.4 1-.5 1.4-.2l3.9 3c.4.3.5 1 .2 1.4 0 0-.5.8-.8 1.1-.2.3-.6 1.3-.6 1.3-.2.5-.8.7-1.3.5l-4.5-1.9c-.5-.2-.7-.8-.5-1.3 0 0 .5-1.2 1-2 .4-.9 1.2-1.9 1.2-1.9zm-3.7 7.1c.2-.5.8-.8 1.3-.6l4.6 1.9c.5.2.8.8.6 1.3 0 0-.3.9-.4 1.3-.1.4-.3 1.4-.3 1.4-.1.5-.6.9-1.2.9l-4.9-.7c-.5-.1-.9-.6-.8-1.1 0 0 .2-1.3.5-2.2.2-1.1.6-2.2.6-2.2zm-1.3 7.8c.1-.5.6-.9 1.1-.9l4.9.6c.5.1 1 .6.9 1.1 0 0-.1.9-.1 1.3s.1 1.4.1 1.4c.1.5-.3 1.1-.9 1.1l-4.9.6c-.5.1-1-.3-1.1-.9 0 0-.1-1.3-.1-2.3-.1-.8.1-2 .1-2zm.2 7.9c-.1-.5.3-1 .8-1.1l4.9-.6c.5-.1 1.1.3 1.2.9 0 0 .2.9.3 1.3s.4 1.4.4 1.4c.2.5-.1 1.1-.6 1.3l-4.6 1.9c-.5.2-1.1 0-1.3-.6 0 0-.5-1.2-.7-2.2-.3-1.1-.4-2.3-.4-2.3zm2.5 7.6c-.2-.5 0-1.1.5-1.3l4.6-1.9c.5-.2 1.1 0 1.3.5 0 0 .4.9.6 1.2.2.4.8 1.2.8 1.2.3.4.2 1.1-.2 1.4l-3.9 3c-.4.3-1.1.2-1.4-.2 0 0-.7-1-1.3-1.9-.5-.9-1-2-1-2zm4.3 6.6c-.3-.4-.3-1.1.2-1.4l3.9-3c.4-.3 1.1-.3 1.4.1 0 0 .6.7.9 1 .3.3 1.1.9 1.1.9.4.3.5 1 .2 1.4l-3 3.9c-.3.4-1 .5-1.4.2 0 0-1-.8-1.7-1.5l-1.6-1.6zm6 5c-.4-.3-.5-1-.2-1.4l3-3.9c.3-.4 1-.5 1.4-.2 0 0 .8.5 1.1.8.3.2 1.3.6 1.3.6.5.2.7.8.5 1.3L31.7 71c-.2.5-.8.7-1.3.5 0 0-1.2-.5-2-1-.9-.5-1.9-1.3-1.9-1.3zm7.1 3.8c-.5-.2-.8-.8-.6-1.3l1.9-4.6c.2-.5.8-.8 1.3-.6 0 0 .9.3 1.3.4.4.1 1.4.3 1.4.3.5.1.9.6.9 1.2l-.6 4.9c-.1.5-.6.9-1.1.8 0 0-1.3-.2-2.2-.4s-2.3-.7-2.3-.7zM21.3 42.3c0-.5.5-1 1-1h.8c.5 0 1 .5 1 1v4.1c0 .6-.5 1-1 1h-.8c-.5 0-1-.5-1-1v-4.1zm4.3 0c0-.5.5-1 1-1h.8c.5 0 1 .5 1 1v4.1c0 .5-.5 1-1 1h-.8c-.6 0-1-.5-1-1v-4.1zm4.2 0c0-.5.5-1 1-1h.8c.6 0 1 .5 1 1v4.1c0 .5-.5 1-1 1h-.8c-.6 0-1-.5-1-1v-4.1zm4.2 0c0-.6.5-1 1-1h.8c.5 0 1 .5 1 1v4.1c0 .5-.5 1-1 1H35c-.5 0-1-.5-1-1v-4.1zm14.7 6.9c.5-.3 1.1-.1 1.4.4l.4.6c.3.5.1 1.1-.4 1.4l-3.5 2.1c-.5.3-1.1.1-1.4-.4l-.4-.6c-.3-.5-.1-1.1.4-1.4l3.5-2.1zm2.2 3.6c.5-.3 1.1-.1 1.4.4l.4.6c.3.5.1 1.1-.4 1.4l-3.5 2.1c-.5.3-1.1.1-1.4-.4l-.4-.7c-.3-.5-.1-1.1.4-1.4l3.5-2zm2.1 3.6c.5-.3 1.1-.1 1.4.4l.4.6c.3.5.1 1.1-.4 1.4l-3.5 2.1c-.5.3-1.1.1-1.4-.4l-.4-.6c-.3-.5-.1-1.1.4-1.4l3.5-2.1zm2.2 3.7c.5-.3 1.1-.1 1.4.4l.4.6c.3.5.1 1.1-.4 1.4l-3.6 2c-.5.3-1.1.1-1.4-.4l-.4-.6c-.3-.5-.1-1.1.4-1.4l3.6-2zm-21.1-36c.5-.3 1.1-.1 1.4.4l.4.6c.3.5.1 1.1-.4 1.4L32 28.6c-.5.3-1.1.1-1.4-.4l-.4-.6c-.3-.5-.1-1.1.4-1.4l3.5-2.1zm2.1 3.7c.5-.3 1.1-.1 1.4.4l.4.6c.3.5.1 1.1-.4 1.4l-3.5 2.1c-.5.3-1.1.1-1.4-.4l-.4-.6c-.3-.5-.1-1.1.4-1.4l3.5-2.1zm2.2 3.6c.5-.3 1.1-.1 1.4.4l.4.6c.3.5.1 1.1-.4 1.4l-3.5 2.1c-.5.3-1.1.1-1.4-.4l-.4-.6c-.3-.5-.1-1.1.4-1.4l3.5-2.1zm2.1 3.7c.5-.3 1.1-.1 1.4.4l.4.6c.3.5.1 1.1-.4 1.4l-3.5 2.1c-.5.3-1.1.1-1.4-.4l-.4-.6c-.3-.5-.1-1.1.4-1.4l3.5-2.1zm-2.1 14.1c-.5-.3-1.1-.1-1.4.4l-.4.6c-.3.5-.1 1.1.4 1.4l3.5 2.1c.5.3 1.1.1 1.4-.4l.4-.6c.3-.5.1-1.1-.4-1.4l-3.5-2.1zm-2.2 3.6c-.5-.3-1.1-.1-1.4.4l-.4.6c-.3.5-.1 1.1.4 1.4l3.5 2.1c.5.3 1.1.1 1.4-.4l.4-.6c.3-.5.1-1.1-.4-1.4l-3.5-2.1zm-2.1 3.6c-.5-.3-1.1-.1-1.4.4l-.4.6c-.3.5-.1 1.1.4 1.4l3.5 2.1c.5.3 1.1.1 1.4-.4l.4-.6c.3-.5.1-1.1-.4-1.4l-3.5-2.1zM32 60.1c-.5-.3-1.1-.1-1.4.4l-.4.6c-.3.5-.1 1.1.4 1.4l3.5 2.1c.5.3 1.1.1 1.4-.4l.4-.6c.3-.5.1-1.1-.4-1.4L32 60.1zm21-36c-.5-.3-1.1-.1-1.4.4l-.4.6c-.3.5-.1 1.1.4 1.4l3.5 2.1c.5.3 1.1.1 1.4-.4l.4-.6c.3-.5.1-1.1-.4-1.4L53 24.1zm-2.1 3.7c-.5-.3-1.1-.1-1.4.4l-.4.6c-.3.5-.1 1.1.4 1.4l3.5 2.1c.5.3 1.1.1 1.4-.4l.4-.6c.3-.5.1-1.1-.4-1.4l-3.5-2.1zm-2.1 3.6c-.5-.3-1.1-.1-1.4.4l-.4.6c-.3.5-.1 1.1.4 1.4l3.5 2.1c.5.3 1.1.1 1.4-.4l.4-.6c.3-.5.1-1.1-.4-1.4l-3.5-2.1zm-2.2 3.7c-.5-.3-1.1-.1-1.4.4l-.4.6c-.3.5-.1 1.1.4 1.4l3.5 2.1c.5.3 1.1.1 1.4-.4l.4-.6c.3-.5.1-1.1-.4-1.4l-3.5-2.1z"/></svg>