<svg aria-labelledby="title" id="Ebene_1" xmlns="http://www.w3.org/2000/svg" viewBox="0 0 88 88" role="img"><title id="title">Icon: Sudoku</title><path fill="#e9f1f5" d="M0 0h88v88H0z"/><path fill="#fff" d="M15.1 13h16.1v16.1H15.1z"/><path fill="#235973" d="M31.5 29.4H14.9V12.7h16.7v16.7zm-16.1-.6H31V13.2H15.4v15.6z"/><path fill="#fff" d="M36.5 13h16.1v16.1H36.5z"/><path fill="#235973" d="M52 13.5v15H37v-15h15m.6-.5H36.5v16.1h16.1V13zm5.2 0h16.1v16.1H57.8zM14.9 33.7h16.7v16.7H14.9z"/><path fill="#fff" d="M36.5 33.9h16.1V50H36.5z"/><path fill="#235973" d="M52.9 50.3H36.2V33.7h16.7v16.6zm-16.2-.5h15.6V34.2H36.7v15.6z"/><path fill="#fff" d="M57.8 33.9h16.1V50H57.8z"/><path fill="#235973" d="M74.2 50.3H57.5V33.7h16.7v16.6zm-16.1-.5h15.6V34.2H58.1v15.6z"/><path fill="#fff" d="M15.1 55.6h16.1v16.1H15.1z"/><path fill="#235973" d="M31.5 72H14.9V55.3h16.7V72zm-16.1-.5H31V55.9H15.4v15.6z"/><path fill="#fff" d="M36.5 55.3h16.1v16.1H36.5z"/><path fill="#235973" d="M52.9 71.7H36.2V55h16.7v16.7zm-16.2-.6h15.6V55.5H36.7v15.6zM24.6 19.6c.1-.9-.3-1.3-1.3-1.3-.9 0-1.4.4-1.4 1 0 1.6 4.4.5 4.4 3.4 0 1.5-1.1 2.4-3.1 2.4s-3.1-.6-2.9-2.5h1.5c-.1 1 .5 1.3 1.6 1.3 1 0 1.5-.4 1.5-1 0-1.6-4.4-.5-4.4-3.4 0-1.5 1.2-2.3 3-2.3 1.7 0 2.9.7 2.7 2.4h-1.6zm23.2-1.2v3.5c0 2.1-.9 3.1-3 3.1-2.2 0-3-.9-3-3v-3.6h-.9v-1.1h3.3v1.1h-.9V22c0 1.4.4 1.9 1.5 1.9s1.5-.6 1.5-1.8v-3.7h-.9v-1.1h3.2v1.1h-.8zM42 38.2h2.7c2.5 0 3.6 1.3 3.6 3.6 0 2.4-1.1 4-3.9 4H41v-1.1h.9v-5.3H41v-1.1h1zm2.6 6.4c1.6 0 2.1-1.1 2.1-2.7 0-1.4-.4-2.6-2.2-2.6h-1.1v5.2h1.2zm17.9-2.5c0-2.5 1.1-4.1 3.5-4.1 2.2 0 3.4 1.3 3.4 3.8s-1.1 4.1-3.5 4.1c-2.2 0-3.4-1.3-3.4-3.8zm5.3-.2c0-1.8-.7-2.7-1.9-2.7S64 40.2 64 42c0 1.8.7 2.7 1.9 2.7 1.3 0 1.9-1 1.9-2.8zM23 63.8h-.8V66h.8v1.1h-3.2V66h.9v-5.3h-.9v-1.1H23v1.1h-.8v2h.8l1.6-2h-.8v-1.1h3.1v1.1h-.7l-2 2.4 2.3 2.9h.7v1.1h-3.3V66h.8L23 63.8z"/><path fill="#235973" d="M47.8 60.6v3.5c0 2.1-.9 3.1-3 3.1-2.2 0-3-.9-3-3v-3.6h-.9v-1.1h3.3v1.1h-.9v3.6c0 1.4.4 1.9 1.5 1.9s1.5-.6 1.5-1.8v-3.7h-.9v-1.1h3.2v1.1h-.8zm9.7-5.7h16.7v16.7H57.5z"/></svg>