<svg aria-labelledby="title" id="Ebene_1" xmlns="http://www.w3.org/2000/svg" viewBox="0 0 88 88" role="img"><title id="title">Icon: Street</title><path fill="#e9f1f5" d="M0 0h88v88H0z"/><path fill="#fff" d="M15.2 14.2h16.1v16.1H15.2z"/><path fill="#235973" d="M31.6 30.7H14.9V14h16.7v16.7zm-16.1-.6h15.6V14.5H15.5v15.6zm21-15.9h16.1v16.1H36.5zm21.4 0H74v16.1H57.9z"/><path fill="#fff" d="M15.2 35.6h16.1v16.1H15.2z"/><path fill="#235973" d="M31.6 52H14.9V35.3h16.7V52zm-16.1-.6h15.6V35.8H15.5v15.6z"/><path fill="#fff" d="M36.5 35.2h16.1v16.1H36.5z"/><path fill="#235973" d="M53 51.6H36.3V35H53v16.6zm-16.2-.5h15.6V35.5H36.8v15.6z"/><path fill="#fff" d="M57.9 35.2H74v16.1H57.9z"/><path fill="#235973" d="M74.3 51.6H57.6V35h16.7v16.6zm-16.2-.5h15.6V35.5H58.1v15.6z"/><path fill="#fff" d="M15.2 56.9h16.1V73H15.2z"/><path fill="#235973" d="M31.6 73.3H14.9V56.6h16.7v16.7zm-16.1-.5h15.6V57.2H15.5v15.6z"/><path fill="#fff" d="M36.5 56.6h16.1v16.1H36.5z"/><path fill="#235973" d="M53 73H36.3V56.3H53V73zm-16.2-.6h15.6V56.8H36.8v15.6zm21.1-15.5H74V73H57.9zm-33.2-36c.1-.9-.3-1.3-1.3-1.3-.9 0-1.4.4-1.4 1 0 1.6 4.4.5 4.4 3.4 0 1.5-1.1 2.4-3.1 2.4s-3.1-.6-2.9-2.5h1.5c-.1 1 .5 1.3 1.6 1.3 1 0 1.5-.4 1.5-1 0-1.6-4.4-.5-4.4-3.4 0-1.5 1.2-2.3 3-2.3 1.7 0 2.9.7 2.7 2.4h-1.6zm2.1 21.2h-1.2l-.1-1.5h-1.4v5.3l1.2.1v1.1h-3.9V46l1.2-.1v-5.3h-1.4l-.1 1.5h-1.2v-2.6h6.9v2.6zm42 4.9h-5.9v-1h.9v-5.3h-.9v-1.1h5.9v2.1h-1.2l-.1-1h-2.2v2H68l-.1 1.1h-2.6V46h2.3l.1-1h1.2v2z"/><path fill="#235973" d="M47.8 63.1h-1.2l-.1-1.5h-1.4V67l1.2.1v1.1h-3.9V67l1.2-.1v-5.3h-1.4l-.1 1.5h-1.2v-2.6h6.9v2.6zm-2.9-19.2h-1.1v2h.9V47h-3.3v-1h.9v-5.3h-.9v-1.1h3.7c1.9 0 2.8.7 2.8 2.1 0 1-.6 1.7-1.6 2.1l1.4 2.3h.8v1.1c-.3 0-.6.1-1 .1-.9 0-1.2-.2-1.5-1l-1.1-2.4zm-.1-1.1c1 0 1.5-.4 1.5-1.1 0-.7-.4-1.1-1.4-1.1h-1.1v2.2h1zM26.3 68.5h-5.9v-1.1h.9V62h-.9v-1.1h5.9V63H25l-.1-1h-2.2v2h2.7l-.1 1.1h-2.6v2.2H25l.1-1h1.2v2.2z"/></svg>