<svg aria-labelledby="title" id="Ebene_1" xmlns="http://www.w3.org/2000/svg" viewBox="0 0 88 88" role="img"><title id="title">Icon: Kreuzwortraetsel</title>
<rect fill="#E9F1F5" width="88" height="88"/>
<rect x="14.6" y="14.6" fill="#FFFFFF" width="58.8" height="58.8"/>
<path fill="#245973" d="M14.6,14.6v58.8h58.8V14.6H14.6z M71.7,33.4H54.4l0-17.1h17.3V33.4z M35.1,52.8l0-17.8h17.7l0,17.8H35.1z
	 M52.8,54.5l0,17.3H35.1l0-17.3H52.8z M16.3,35.1h17.2l0,17.8H16.3V35.1z M35.1,33.4l0-17.1h17.7l0,17.1H35.1z M33.4,16.3l0,17.1
	H16.3V16.3H33.4z M54.4,71.7l0-17.3h17.3v17.3H54.4z"/>
<path fill="#245973" d="M60.2,28.8v-1.1l0.9,0v-5.3l-0.9,0v-1.1h3.5v1.1l-1.1,0v5.3h2l0.1-1.5h1.2v2.6H60.2z"/>
<path fill="#245973" d="M45,26.4h-2.6L42,27.7l0.8,0v1.1H40v-1.1l0.6,0c0.7-2,1.4-4.2,1.9-5.3l-0.9,0v-1.1h3.3
	c0.8,2.2,1.6,4.4,2.3,6.5l0.6,0v1.1h-3v-1.1l0.8,0L45,26.4z M42.8,25.3h1.8l-0.5-1.6c-0.1-0.5-0.3-0.9-0.4-1.3h0
	c-0.1,0.4-0.2,0.8-0.4,1.3L42.8,25.3z"/>
<path fill="#245973" d="M26.1,26.4h-2.6l-0.4,1.3l0.8,0v1.1h-2.9v-1.1l0.6,0c0.7-2,1.4-4.2,1.9-5.3l-0.9,0v-1.1h3.3
	c0.8,2.2,1.6,4.4,2.3,6.5l0.6,0v1.1h-3v-1.1l0.8,0L26.1,26.4z M23.9,25.3h1.8l-0.5-1.6c-0.1-0.5-0.3-0.9-0.4-1.3h0
	c-0.1,0.4-0.2,0.8-0.4,1.3L23.9,25.3z"/>
<path fill="#245973" d="M23.4,48v-1.1l0.9,0v-5.3l-0.9,0v-1.1h3.3v1.1l-0.9,0v5.3l0.9,0V48H23.4z"/>
<path fill="#245973" d="M48.2,41.6c0.2,1.7,0.3,3.7,0.4,5.3l0.8,0V48h-3.2v-1.1l0.9,0l-0.2-3.2c0-0.7-0.1-1.3-0.1-2.1h0
	c-0.2,0.9-0.5,1.7-0.8,2.8L44.8,48h-1.6L42,44.4c-0.4-1.1-0.6-1.9-0.8-2.8h0L41,43.8c-0.1,1-0.1,2.1-0.2,3.1l0.9,0V48h-3.1v-1.1
	l0.8,0c0.1-1.6,0.3-3.7,0.4-5.3l-0.9,0v-1.1h3.3l0.9,2.7c0.3,1,0.6,2.1,0.8,3.1h0c0.2-1,0.5-2.1,0.8-3.1l0.9-2.7h3.3v1.1L48.2,41.6z
	"/>
<path fill="#245973" d="M66.5,60.3v3.5c0,2.1-1,3.1-3,3.1c-2.2,0-3-0.9-3-3v-3.6l-0.9,0v-1.1h3.3v1.1l-0.9,0v3.6
	c0,1.4,0.4,1.9,1.5,1.9c1.1,0,1.5-0.6,1.5-1.8v-3.7l-0.9,0v-1.1h3.2v1.1L66.5,60.3z"/>
<path fill="#245973" d="M47.2,61.7h-1.2L46,60.3h-1.4v5.3l1.2,0.1v1.1h-3.9v-1.1l1.2-0.1v-5.3h-1.4l-0.1,1.5h-1.2v-2.6h6.9V61.7z"/>
</svg>
