<svg aria-labelledby="title" xmlns="http://www.w3.org/2000/svg" viewBox="0 0 88 88" role="img"><title id="title">Icon: Wimmelbild</title><path fill="#E9F1F5" d="M0 0h88v88H0z"/><path fill="#FFF" d="M13.5 14.6h61.1v58.2H13.5z"/><circle fill="#E9F1F5" cx="41" cy="42" r="6.8"/><path fill="#235973" d="M23.6 63.1l3.1 7.8s.3.2.5-.1l-3.4-8-.2.3z"/><path fill="#E9F1F5" d="M23.7 63l3.1 7.7s.1.1.2 0l-3.2-7.9-.1.2zm-3-7s-.4-.6-1.1-.7c0 0-1.1.5-1.9 1.1-.5.4-1.8 1.7-1.9 1.9 0 .3 4.9-2.3 4.9-2.3z"/><path fill="#235973" d="M20.7 56.2h.1s1.8-1.7 2.8-1.9c0 0-2 .4-2.2.5-.9.2-1.6.6-1.8.6 0-.1 1.1.8 1.1.8z"/><path fill="#E9F1F5" d="M23.3 54.3c-1 .4-2.6 2-2.6 2l7.9-.3c-.7-.6-2.7-1.5-2.7-1.5-1.1-.6-2.6-.2-2.6-.2z"/><path fill="#235973" d="M20.7 56s-3.4.5-5.1 2.6c0 0-.9 2.1-.5 3.2l5.6-5.8z"/><path fill="#E9F1F5" d="M24.1 62.7s.5.1.9.1c1.4 0 3.3-2.2 3.5-2.9 0 0 .2-.5 0-.9-.1 0-2.8 2.9-4.4 3.7z"/><path fill="#235973" d="M28.4 59.1s.5-.1.7-.4c.2-.4.5-1.6-.2-2.6l-.3-.2s.1 1.1-.2 3.2z"/><path fill="#E9F1F5" d="M18.2 63.9s-.4.3-.8.3c-.8-.1-1.5-.8-1.9-1.4-.1-.2-.5-1-.4-1 .1.1 2.3 2 3.1 2.1z"/><path fill="#235973" d="M21 56s5.1-1.5 7.6-.1c0 0 .4 2-.2 3.1l-7.6-2.9.2-.1z"/><path fill="#E9F1F5" d="M21.1 56.1s4.2.6 7.4 2.9c0 0-.8 1-2.3 2.2-.6.5-1.5 1.2-2.1 1.4l-3.3-6.5h.3zm-2.9 7.8c-2.2-.6-3.2-2.1-3.2-2.1 1.8-3.7 5.7-5.7 5.7-5.7l-2.5 7.8"/><path fill="#235973" d="M18.2 63.9l.5.5s.6.3 1 .3c.9 0 2.6-.2 3.8-1 .4-.3.5-.7.7-1v-.1c-.1 0-2.6 1.5-6 1.3z"/><path fill="#235973" d="M20.6 56.3s-2 3.1-2.5 7.6c0 0 2.8.4 5.9-1.2 0 0-2.5-5.6-3.3-6.4h-.1z"/><path fill="#FFF" d="M20.6 56.5h-.2c-.1-.1-.2-.2 0-.3.3-.3.6-.2.6 0 .1.1-.2.2-.4.3z"/><path fill="#FCFCFA" d="M20.5 56.3s.1.1.2 0l.1-.1-.2-.5s-.1-.1-.2 0c-.1 0-.1.1-.1.2l.2.4z"/><path fill="#235973" d="M48.6 69l3.2.1s2.5.6 3 .3V66c0-.2.1-.1.1-.3 0-.2-.7-1.7-.9-2.6-.4-2-.8-4.3-1.2-6.1v-5c0-3.1.6-6 .6-6.4 0-.2 0-.3-.2-.3-.9 0-4.5 1.7-4.7 1.9-.8.7-1.2 1.1-2.6 2.4 0-.2 0-.3-.1-.4h-.2c-.4.3-1.3.8-2 1.4v-.2c0-.2.2-.4.3-.8.1-.4-.1-1.1.2-1.4.2-.2.6-.3.8-.4-.1-.1-.3-.1-.5-.1v-.3c.1-.3.4-.6.8-.9.2.1.8.4 1.1.4h.6v-.2c-.4-.3-.9-.5-1.3-.8.3-.1.6-.7.5-.9.3 0 .7-.2.9-.2.6 0 1.8 1 2.7 1.1h.6c-.5-.6-1.1-.8-1.7-.9l-.6-.6c.3-.2 1-.2 1-.7 0-.2 0-.1-.1-.2.1 0 .3-.2.5-.2s.9.6 1 .6c0 0 .9-.5.9-.6 0-.2-.5-.6-.7-.8.4 0 .7-.5.9 0V42c-.8-.5-2-.4-2.7-1.2-.1.5 0 .4.1.6-.3.2-.8.4-1 .4-.2 0-1-.2-1.2-.2-.1 0-.5 0-.7.2.3.4.8 0 1 .4-.9.2-1.9.1-2.8.3-1.2.2-2.2.6-3.2 1.2-.2.1-.4.2-.6.2.4-.3.7-.8 1.1-1.1.7-.5 1.4-.7 1.9-1.1h-.3c-.2 0-.4.1-.6.1.5-.6 1.1-1.2 1.7-1.8H46c.2 0 1.6.7 1.6.7.2 0 .1-.1.1-.1-.4-1.2-2.1-1.5-2.8-1.7.5-.5.9-.6 1.2-.9.2 0 .5 0 .7-.1-.1-.1-.3-.3-.3-.5h.3c.2 0 0 .1.1.1h1.2v-.2c-.7-.2-1.9-.3-2.4-1.2.3 0 .5.1.6.1h1.2V36c-.7-.2-1.5-.5-2.2-.8.1-.2.2-.2.2-.4s-.1-.6-.2-1h1.3c-.3-.3-.9-.6-1.1-.7-.4-.3-.4-1.1-.3-1.5.6.5 1.1.9 1.5 1.3l.3.1c0-.7-.1-.9-.1-.9.7.5 1.3 2.7 1.6 2.7.2 0 .1-.1.1-.1v-1.4c1.5.9 2.5 2.4 3.4 3.8V37c-.1-.3-.1-.7-.3-1.1-.1-.2-.2-.3-.3-.4-.1-.5-1.3-2-1.3-2.2 0-.2.1-.2.1-.2.3.2.9.5 1.3.9l.1-.1c-.2-.5-.4-1-.7-1.6l1.8-1.8c-.9 1.9-.7 2.3-.7 4 0 1.6.2 3.4 1 4.7.1-.1.2-.2.2-.4.1-1.2.6-2.4 1-3.3 0 .3-.1.5-.1.7v1.4c0 .2.1.1.1.1l.1-.1c0-.1.1-.2.1-.4s.4-1.2.6-1.9c.1 0 .2-.2.4-.2s.3.1.4.1c.2 0 .7-.7 1.3-.7h.9v.6c-.1 0-.1-.2-.1 0v.5h.1c.7-1.3 1.2-1.1 2-1.1.2 0 .9 0 1.3.1-1.3.8-2.9 1.3-4 2.5.2-.1 3.2-1.2 4.3-1.2.2 0 .7.1.9.1.2 0 .6-.3.6-.7 0-.2-2.3-1.4-2.9-1.8-.3-.2-.5-.8-.6-.9-.1.2 0 .3.1.4-1 0-1.7-1.9-2-2.3l-.3.3c.1.3.1.6.2 1-.5-.5-1-1.3-1.2-1.3-.2 0-.1.1-.1.1v.2c-.4-.3-.8-.5-1.3-.8h1.6c.2 0 2.2.4 3.2.8s1.4.8 2.4 1.6c.1.1.5 1.3.7 1.3.2 0 .1-.1.1-.1-.3-2.7-1.3-4.8-2.3-7.3-.1-.3-.4-.6-.7-.9.6.3 1.2.9 1.4.9.2 0 .1-.1.1-.1-.1-.5-.1-.9-.3-1.1 1 0 .6.7 1 .7.2 0 .1 0 .2-.1 0-.1-.2 0-.1-.2v-.3h.5c.2 0 .4.3.6.3 0 .3.1.7.1 1 0 .1.1 0 .1.2v1.5c0 .2.1.1.1.1.3-.7.5-1.2.4-1.8.2-.1.4-.1.4 0-.1.7-.1 1-.1 1.2.3-.2.6-.5.7-.7.3.3.7.8 1 .9 0 .1.1.1.1.1.7.8.7 1.4 1.2 2.4.8-1.1 2-2.8 3.1-3.4-.1.4-.3 1-.3 1.2v.1c.7-.4.9-1.8 1.6-1.8.2 0 .4.1.6.2-1.3 1.3-2.9 3.4-3.1 5.1-.3.1-2.1.4-2.1 1v.2c2-.4 2.9-.9 4.6-.9 2.4 0 5.1.9 6.9 2.6-.6-.1-1.1.1-1.5-.2-.4-.3-.9-1-1.3-1-.2 0-.1.1-.1.1.1.2.1.4.1.7-.6-.7-.9-1.2-1.5-1.6-.1.1-.2.1-.2.3 0 .2.7.7.9 1 .2.3.3.6.5.9-.3.2-1 .3-1.2.3s-1-1-1.4-1.5l-.1.1.6 1.2c-.2.2-.3.3-.5.3-.2-1-.9-1.4-1.5-2.2l-.1.1c.4.8.7 1.6 1 2.2-.6.1-1.2.3-1.8 1 .1.1.2.2.3.2.5 0 1.1 0 1.5.2 1.4.6 2.9.6 4.1 2.6-.1 0-.2 0-.3-.1-.3-.3-.6-.6-.9-.8-.1-.1-.3 0-.4-.2l-.1.1c.7.5 2.6 3.5 2.6 4.6v.9c-.8-.5-1.7-1.3-1.8-1.8-.4 0-.8.1-1.1 0-.7-.3-1.4-.6-2.1-1-.5-.3-.5-1.2-1-1.6v.2c0 .2.1.4.1.6s-.1.3-.2.4c-.4-.3-.7-.6-1.1-.6h-.8v.2c.9.4 1.2 1.7 1.6 2.7-.4-.1-.7-.4-1-.6l.2.4v.2c.4.4.7.9 1 1.3-.1.1-.1.2-.2.3-.1-.1-.8-1.1-1.2-1.1-.2 0-.1 0-.1.2.3.3.7.6.9 1 .3.6.6 1.8.6 2 0 .2-.1 1.3-.3 1.9-.2-.2-.4-.5-.6-.6 0-.1-.1-1.6-.4-1.6-.2 0-.1.1-.1.1v1c-.2-.3-.6-.7-.8-.9-.4-.5 0-1.4-.4-1.9-.3.3-.3.9-.4 1.2-.1-.2-.8-1.5-.8-1.7 0-.6.9-2.4 1-2.7-.1-.1-.1 0-.2-.1-.8.7-1.4 1.9-1.7 2.2-.1-.1-.8-.8-.8-1.2 0-.2.3-.6.3-.8 0-.2-.1-.1-.1-.1-.4.1-.6.4-.8.6-.2-.5-.3-1.1-.3-1.6h-.2c-.4.6-.8 1.2-1.3 1.9-.5.8-2.4 4.1-2.4 4.4 0 .2.6 1.1.6 1.3v.9c-.3-.2-.5-.3-.6-.4l-.1.1c.2.5.7 1.6.7 2-.4-.1-1.4-.7-1.7-.8-.4 1.2-1.2 3.5-1.2 3.7 0 .8-1 3.6-1.1 4-.4 1.7-.8 3.5-1 5.3-.1 1.4-.1 1.6-.1 1.8 0 .5 1.4 3.8 1.6 4.3 1.1 0 2.3-1.4 2.3-1.4s.6 1.2 1 1.8h.2l.3-.9c0 .3-.1.7-.1.9s0 .1.1.2c.4 0 .9.1 1 .2H64c-.3-.5 0-.9 0-1.6 0 .3.2 1.4.2 1.4l.2-.2c.3-.5.6-.5.6-.5s7.6 1.9 9.6 4.2H13.4V72c.7-.1 2.2-.3 2.7-.7l-.1-.2h.4c.2 0 0 .1.2.1s.1-.1.1-.1v-.4c0-.2-.2-.3-.1-.4.2.2.3.7.5.7s.5-.4.7-.7c0 .2-.1.4-.1.6s0 .1.1.2c.1 0 .3.2 3.3-.1 1.4-.1 2.7-.1 3.9-.6m30-10.2c.1 0 .1.1.3.2.2-.8.5-1.7.7-2.6.3-1.1.4-2.3.8-3.5.6-1.8 1.9-5.3 1.9-5.5 0-.2-.2-.4-.3-.6-.1.4-.3.8-.4 1.2v-.3c0-.2.1-1.1.3-2.1-.4.3-.7 1.4-.8 2-.4-.3-1.2-1-1.2-1.7 0-.2.4-.9.5-1.3v-.3c-.3.3-.5.6-.8.9-.3-.5-.3-1.3-1.1-1.6-.2 1.4-.3 3.2-.4 4.6v5.7c-.2 2.7 0 1.3.5 4.9z"/><circle fill="#FFF" cx="68.8" cy="66.7" r="4.6"/><path fill="#235973" d="M71.3 70.6c-.7.4-1.4.7-2.2.7h-.6c-.2 0-.4 0-.6-.1-.4-.1-.8-.2-1.2-.4l-.4-.2h-.1l-.1-.1c-.2-.1-.3-.2-.4-.3-.1-.1-.2-.1-.2-.2-.1 0-.1-.1-.1-.1l-.1-.1-.3-.4-.1-.2c-.1-.2-.2-.3-.3-.5l-.2-.6c-.1-.4-.2-.8-.2-1.2-.1-.8.1-1.6.4-2.4.4-.7.9-1.3 1.5-1.8l.3-.2.3-.2.3-.1.3-.1c.5-.1.9-.2 1.2-.3.9-.1 1.7.1 2.4.4.7.4 1.4.9 1.8 1.6l.3.6c.1.2.2.4.2.6.1.2.1.4.1.6 0 .2.1.4.1.6 0 .8-.2 1.6-.6 2.4-.3.9-.8 1.5-1.5 2z"/><path fill="#FFF" d="M71.4 70.3c.3-.2.5-.4.7-.6l.3-.4.3-.4c.4-.6.5-1.1.5-1.5l-.1-.1h-.5c-.1.3-.3.6-.5.8l-.1.3-.1.1-.1.1-.2.2-.2.2-.1.5-.3.8.1.1.2-.1h.1z"/><path fill="#FFF" d="M71.5 68.8s.2-.2.4-.5l.3-.4.2-.4c.1-.2.1-.4.1-.8s-.1-.7-.2-.8c-.1-.1-.5-.2-1.2-.3-.2 0-.3 0-.4.1-.1.1-.1.2-.2.3l-.2.3c-.1.1-.2.3-.5.6l.1 1.3v.1c0 .1 0 .2.1.2 0 .1.3.1.7.2.4.1.6.1.8.1zm.8-3.3c.1-.1.2-.3.3-.6.1-.3.1-.5-.1-.7l-.1-.1-.2-.3-.4-.4c-.3-.3-.5-.5-.7-.5-.3-.1-.6-.2-.7-.1v.2l-.1.3c-.1.3-.2.5-.2.6l.5.8.3.5c0 .1.3.1.6.2l.5.1c.1.1.3.1.3 0zm-1.5 5.2l.2-.1-.1-.1-.2.1-.2.1-.2.1-.2.1-.6.1h-.6l-.3.2c.6 0 1-.1 1.2-.1.1 0 .2-.1.5-.1.2-.1.4-.2.5-.3z"/><path fill="#FFF" d="M68.8 69.6l.2-.1.2-.2.1-.1.2-.1.2-.2.2-.3v-.2c-.1-.9-.1-1.4-.2-1.6-.1-.1-.3-.2-.8-.4s-.7-.2-.7-.2l-1 .8c-.4.3-.6.6-.6.7 0 .1 0 .4.1.8v.2l.1.1.1.2c.1.1.2.2.4.3l.3.1.3.1.3.1.3.1c.1 0 .2 0 .3-.1zm0 1.3c.1-.2 0-.3-.1-.6l-.1-.3v-.1c0-.1-.2-.1-.5-.2-.1 0-.3-.1-.6-.2l-.4-.1h-.3l-.2-.1-.2.1-.3.1h-.3c0 .1 0 .2.1.3v.1s0 .1.1.2c.1.2.4.4.7.6l.5.2.5.1c.3.1.6.1.7 0l.1-.1h.3zm1-7c.1 0 .2-.3.3-.6.2-.4.2-.6.2-.6 0-.1-.1-.1-.2-.2l-.2-.1c-.2-.1-.4-.1-.6-.2-.5-.1-1 0-1.5.1s-.7.2-.8.3c-.1.1-.2.3-.3.5-.1.3-.2.5-.2.5 0 .1.5.3 1.4.7.1 0 .2 0 .4-.1l.6-.2c.6 0 .9-.1.9-.1zm-3.2 3.5l.6-.5.5-.4.3-.3c.1-.1.1-.4.1-.8 0-.5 0-.7-.1-.8-.1-.1-.3-.2-.8-.5-.5-.2-.7-.3-.8-.3l-.3.2-.3.3-.5.5c-.1.2-.1.6-.1 1.1v.8c.1.1.2.2.6.4l.4.2.4.1zm-.9 2.6c-.1-.3-.2-.6-.4-.9-.2-.2-.3-.4-.4-.6l-.4-.4c.1.5.3.8.5 1.1.2.3.4.5.5.5.1.2.2.2.2.3zm-1-2.1l.1-.4.1-.4c.1-.3.1-.5.1-.5v-2l-.1-.1c-.4.4-.6 1-.6 1.8v1.2l.1.3c.1 0 .1.1.3.1z"/><path fill="#235973" d="M60.5 64.8c-.1.2-3 4.9-2.8 6.1 0 0 0 .2.2.3.1.1.3.1.4 0 .3-.2 1.6-.9 4-4.4 0 0 .1-.2.1-.4 0-.1-.1-.2-.2-.2l-.5-.3h.1v.1l.2-.3-1.5-.9z"/><path fill="#FFF" d="M61.7 65.7l-.1.2v.1l.5.3c.1 0 .1.1.1.2s-.1.3-.1.3c-2.3 3.5-3.6 4.2-3.9 4.4-.1.1-.3.1-.3 0-.1-.1-.1-.3-.1-.3-.1-1.2 2.7-6 2.7-6l1.2.8z"/><path fill="#235973" d="M63.2 61.8c.4.2.5.7.3 1.1l-1.7 2.9-1.4-.8 1.7-2.9c.3-.4.8-.5 1.1-.3z"/><circle fill="#FFF" cx="62.8" cy="62.5" r=".3"/><path fill="#235973" d="M50.7 60.5c-.3 0-.6.1-.9.1-.4-1.3-.7-2.4-.7-2.4v-.1l-.3-1c.5-.2 1.1-.4 1.5-.2.1 0 .2.1.2.3.1.2.1.4 0 .5-.1.3-.5.4-.6.5-.2.1-.3.3-.3.5.1.2.3.3.5.3.1 0 .8-.2 1.1-.9.2-.3.2-.7 0-1.1-.1-.3-.3-.6-.7-.7-.9-.4-2.2.3-2.3.4-.2.1-.2.3-.2.4l.2.9-6.4.2-.2-.8 1.4-.2c.2 0 .3-.2.3-.4s-.1-.3-.3-.3l-2.3-.3h-.2c-.4 0-.7.3-.7.7 0 .4.3.7.7.7h.3l.3.9-1.5 2.5c-.6-.3-1.4-.5-2.1-.4-1.2 0-2.3.6-3.1 1.4-.8.9-1.2 2-1.2 3.2.1 2.5 2.2 4.4 4.7 4.3 2-.1 3.7-1.5 4.2-3.3l1 .2c.2.1.4.1.6.1v1.1h-.6c-.1 0-.3.1-.3.2s.1.3.2.3h1.4c.1 0 .3-.1.3-.2s-.1-.3-.2-.3h-.6v-1.1c.6-.1 1.1-.7 1.1-1.3 0-.2-.1-.4-.2-.6l4-4.5c.1.2.1.5.2.8-1.7.7-2.8 2.4-2.8 4.3.1 2.5 2.2 4.4 4.7 4.3 2.5-.1 4.4-2.2 4.3-4.7.1-2.5-2-4.4-4.5-4.3z"/><path fill="#FFF" d="M41.5 59.4l1.4 4.6-.8.1c-.2-1.1-.9-2.1-1.8-2.8l1.2-1.9zm.8 5.4v-.5l.6-.1c-.2.1-.3.3-.4.5l-.2.1zm-1.1-.6l-2.7.3 1.4-2.3c.6.5 1.1 1.2 1.3 2zm-2 .5l2-.2v.3l-2-.1zm2 .8c0 .1 0 .2-.1.3l-1.8-.3h1.9zm2.5-1.6l-.4-1.3h.5v1.3h-.1z"/><path fill="#FFF" d="M40.3 67.4c-.6.7-1.5 1.1-2.4 1.1-1.9.1-3.6-1.4-3.6-3.4 0-.9.3-1.8.9-2.5.6-.7 1.5-1.1 2.4-1.1.6 0 1.1.1 1.6.3l-1.8 3c-.1.1-.1.3 0 .4.1.1.2.2.3.2l3.4.6c-.1.5-.4 1-.8 1.4zm1.9-1.9h.2c.1.2.1.4.3.5l-.5-.1v-.4zm6.4-6.2L44.3 64c-.1 0-.2-.1-.3-.1v-1.3h.6c.1 0 .3-.1.3-.2s-.1-.3-.2-.3h-1.5l-1-3.2 6.4-.2v.6c0-.1 0 0 0 0zm4.8 8.1c-.6.7-1.5 1.1-2.4 1.1-1.9.1-3.6-1.4-3.6-3.4-.1-1.5.8-2.7 2-3.3.4 1.4.8 2.7 1.1 3.3.1.2.3.3.5.2.2-.1.3-.3.2-.5-.3-.6-.7-1.9-1.1-3.3.2 0 .4-.1.6-.1 1.9-.1 3.6 1.4 3.6 3.4.1 1-.2 1.9-.9 2.6z"/><path fill="#235973" d="M56.7 16v.3c-.2.2-.4.8-.6 1.2-.3.6-1 1-1.3 1.7-.4.7-.6 1.4-1.1 1.9-.3.2-.6.4-.9.5.1.3.6.2.7.5-.3.6-.9 1.3-1.4 1.6-.1-.1 0-.8-.2-1-.4 1.1-1.4 1.6-2.4 2.1-.8.7-1.7 1.4-2.8 1.8.7-1.4 1.9-2.6 3.2-3.5.5-.4 1.2-.6 1.4-1.3-.3-.4-.2-1.6-.5-1.8.5.2.9.5 1.5.7 1.8-1.3 2.1-3.9 4.4-4.7zm-.2 3.9v.1c.1.1.2.3.3.4.1.2.4.3.5.5.2.2.3.5.5.6.1.1.2.1.3.1 0 .1-.2.1-.2.2.1.2.3.4.5.5V22c.2.4.5.5.9.6.3.2.6.4 1 .5-.3-.5-.7-.8-1.2-1-.2-.1-.4-.2-.5-.4.1-.1 0-.5.1-.6-.2.1-.3.2-.5.3-.7-.4-.9-1.3-1.7-1.5zM30.9 32.2l-14.3-2.7 4.5 8.8zm0 0l-18.8-9.6 3.1 5z"/><path fill="#FFF" d="M15.2 27.6L12.5 34l4.4-4.2 14 2.4z"/><path fill="#FFF" d="M12.5 34h6.4l-2-4.2z"/><path fill="#235973" d="M30.9 31.8l-14.3-2.7c-.1 0-.3 0-.4.1-.1.1-.1.3 0 .4l4.5 8.9c0 .1.1.2.2.2h.3l9.8-6.1c.1-.1.2-.2.2-.4s-.1-.4-.3-.4z"/><path fill="#235973" d="M31 31.8l-18.8-9.6c-.2-.1-.3 0-.5.1-.1.1-.1.3 0 .5l3.1 5.1.2.2 15.7 4.6c.2.1.4 0 .5-.2.1-.3 0-.6-.2-.7z"/><path fill="#235973" d="M27.1 30.7c-4.4-1.3-11.4-3.3-11.6-3.4-.1-.2-1.5-2.4-2.3-3.8 1.6.9 9.5 5 13.9 7.2z"/><path fill="#235973" d="M31 31.8l-15.7-4.6c-.2-.1-.4 0-.5.2l-2.6 6.4c-.1.2 0 .4.1.5.1.1.3.1.5 0 0 0 3.9-3.8 4.2-4.1.4.1 13.8 2.3 13.8 2.3.1 0 .2 0 .3-.1.1-.1.1-.1.1-.2.1-.1 0-.3-.2-.4z"/><path fill="#FFF" d="M24.3 30.7l-7.4-1.2c-.1 0-.2 0-.3.1 0 0-1.7 1.7-3 2.9.7-1.7 1.6-3.9 1.8-4.3.4 0 4.6 1.2 8.9 2.5z"/><path fill="#235973" d="M16.9 29.5c-.1 0-.2 0-.3.1l-4.3 4.2c-.1.1-.1.3-.1.4.1.1.2.2.4.2l6.4-.1c.1 0 .3-.1.3-.2.1-.1.1-.3 0-.4l-2-4.1c-.1 0-.3-.1-.4-.1z"/><path fill="#FFF" d="M16.8 30.5l1.5 3.1h-4.8zm35.4 10.2c-1.2-1.7-2.6-2.1-4-2.5h-.3c.2.5.9.8 1.4.6.5.5 1.2 1.2 2.1 1.8.2.1.4 0 .7.2 0 0 .1 0 .1-.1zm2.1-.9h.4c.2 0 .1-.1.3-.1.2 0 .2.1.4.1s.5-.5.8-.9c-.3 0-.6-.2-.7-.2-.6 0-1 .4-1.2 1.1zm1.9-.3c1.4-.4 2.8-.7 4.2-.8-.4-.1-.8-.1-1.1 0-.1-.1 0 0 0-.2s.2-.5.4-.8c-.7.4-1.5.9-2.1 1.3h-.3l.1-.2c-.6.2-.7.2-1.1.6v.1zm0 2.6c.4.3.8.4 1.1.6.7.4 1.9 1.8 2.7 2.7.9-1.6 1.4-3.2 2.8-4.6 0-.1 0-.3-.1-.3-.2 0 0 .1-.1.2h-.2c-.1-.1-.1-.2 0-.4-.3.1-.7.4-1 .6-.4.1-.4.4-.7.6-.3.2-1.5.3-1.5.3h-.3c.1-.1.2-.4.3-.5H59c-.4.3-.8.7-.9 1l-.3-.9c-.3.3-.9.3-1.5.5 0 0 0 .1-.1.2zm11.7-5.5c.7 0 .8-.1.9-.1-.3-.7.1-.7-.5-1.1-.1.3-.4.9-.4 1.2zm1.3 0h.6c-.2-1-.2-1.5-.6-2 0 .2.1.3 0 2zm-5.7-5.1c.5-.4 1.6-1.2 2.1-1.6l-.4-.4c-.4.3-.9.6-1.2.9-.3.3-.4.7-.5 1.1z"/></svg>