<svg aria-labelledby="title" id="Ebene_1" xmlns="http://www.w3.org/2000/svg" viewBox="0 0 88 88" role="img"><title id="title">Icon: Gumblast</title><path fill="#f2f1ec" d="M0 0h88v88H0z"/><path fill="#e9f1f5" d="M0 0h88v88H0z"/><path fill-rule="evenodd" clip-rule="evenodd" fill="#235973" d="M65.3 53.3c2.4-2.6 8.6 2.7 10.1-2 1.3-3.8-8.2-1.2-8-4.4.2-3 9.6-8.6 2.1-14.3-7.9-5.4-11 3.7-15.9 3.5-6.7-1.4 5.5-16.9-.5-18.6-6.9-1.2-1.4 15.5-8.3 16.5-2.8.1-2.6-6.9-7.2-5.1s-.8 6.5-2.8 8.3c-7.3 6.1-19.1-5.1-21.7 1.4-2.1 5.3 13.7-.5 18.2 7 3.1 5.1-12 13.4-5.8 18.7 4.2 3.5 15.4-6.8 19.2-7.8 5.2-1.4 11 8.2 14.9 4.9 2.7-2.3 4.1-6.5 5.7-8.1zM33.7 11.1c3.8-1.6 3.8 11.5 2.6 11.8-1.5.2-5.8-10-2.6-11.8z"/><path fill-rule="evenodd" clip-rule="evenodd" fill="#235973" d="M19.6 26.5c1.9-3.5 12 5.1 11.2 6.4-.6 1-13.6-2.3-11.2-6.4zm25.7 37.2c4.1 1.1 1.3 6.7-1.5 5.8-2-.5-1.7-6.5 1.5-5.8zm28 1.1c-1.9 1.9-5-5.8-4.4-6.3.9-.4 5.9 4.5 4.4 6.3zm-9-43.3c3 1.5-1.9 7.9-3.9 6.7-1.5-.7 1.5-7.7 3.9-6.7zM13.5 60.1c-2.5-2.8 9.3-8.5 10.2-7.3.7.8-7.3 10.7-10.2 7.3zm58.1 16.2c-3.2 2.6-7-9.9-5.9-10.5 1.4-.7 8.5 7.8 5.9 10.5zm-37.4-8.4c3.2 1-.7 8.1-2.8 7.2-1.6-.4.3-7.8 2.8-7.2z"/></svg>