<svg aria-labelledby="title" id="Ebene_1" xmlns="http://www.w3.org/2000/svg" viewBox="0 0 88 88" role="img"><title id="title">Icon: Bubbles</title><path fill="#f2f1ec" d="M0 0h88v88H0z"/><path fill="#e9f1f5" d="M0 0h88v88H0z"/><circle fill="#235973" cx="33.5" cy="34.5" r="16.6"/><path fill="#1a3a4a" d="M22.7 28.6c0-1 .1-2 .3-3-1.9 2.4-3 5.4-3 8.7 0 7.7 6.2 13.9 13.9 13.9 2.3 0 4.5-.6 6.4-1.6-9.8-.3-17.6-8.2-17.6-18z"/><circle fill="#e9f1f5" cx="41.2" cy="29.7" r="2.9"/><circle fill="#235973" cx="65.1" cy="22.8" r="8.6"/><path fill="#1a3a4a" d="M59.6 19.7c0-.5 0-1 .1-1.6-1 1.2-1.6 2.8-1.6 4.5 0 4 3.2 7.2 7.2 7.2 1.2 0 2.3-.3 3.3-.8-5-.1-9-4.2-9-9.3z"/><circle fill="#e9f1f5" cx="69.1" cy="20.3" r="1.5"/><circle fill="#235973" cx="24.6" cy="62.2" r="8.6"/><path fill="#1a3a4a" d="M19 59.1c0-.5 0-1 .1-1.6-1 1.2-1.6 2.8-1.6 4.5 0 4 3.2 7.2 7.2 7.2 1.2 0 2.3-.3 3.3-.8-4.9-.1-9-4.2-9-9.3z"/><circle fill="#e9f1f5" cx="28.6" cy="59.7" r="1.5"/><circle fill="#235973" cx="64.5" cy="56.3" r="12.5"/><path fill="#1a3a4a" d="M56.5 51.8c0-.8.1-1.5.2-2.3-1.4 1.8-2.3 4.1-2.3 6.6 0 5.8 4.7 10.5 10.5 10.5 1.7 0 3.4-.4 4.8-1.2-7.4-.2-13.2-6.2-13.2-13.6z"/><circle fill="#e9f1f5" cx="70.4" cy="52.6" r="2.2"/><circle fill="#235973" cx="60.2" cy="42.4" r="6.3"/><path fill="#1a3a4a" d="M56.1 40.1c0-.4 0-.8.1-1.1-.7.8-1.2 2-1.2 3.2 0 2.9 2.4 5.3 5.3 5.3.9 0 1.7-.2 2.4-.6-3.6-.1-6.6-3.1-6.6-6.8z"/><circle fill="#e9f1f5" cx="63.1" cy="40.5" r="1.1"/></svg>