<?xml version="1.0" encoding="UTF-8"?>
<svg width="162px" height="26px" viewBox="0 0 162 26" version="1.1" xmlns="http://www.w3.org/2000/svg" xmlns:xlink="http://www.w3.org/1999/xlink">
    <title>/Web svg/4091-Logo</title>
    <defs>
        <linearGradient x1="50%" y1="0.0235398259%" x2="50%" y2="99.9736406%" id="linearGradient-1">
            <stop stop-color="#002A91" offset="0%"></stop>
            <stop stop-color="#002672" offset="80%"></stop>
        </linearGradient>
        <linearGradient x1="50.47962%" y1="55.0448975%" x2="49.6715602%" y2="46.0800002%" id="linearGradient-2">
            <stop stop-color="#FFFFFF" offset="0%"></stop>
            <stop stop-color="#FFFFFF" stop-opacity="0.25" offset="100%"></stop>
        </linearGradient>
        <linearGradient x1="49.9840076%" y1="0%" x2="49.9840076%" y2="100%" id="linearGradient-3">
            <stop stop-color="#FF0000" offset="40%"></stop>
            <stop stop-color="#D42321" offset="100%"></stop>
        </linearGradient>
        <linearGradient x1="50.1583492%" y1="51.0813387%" x2="49.5917187%" y2="48.1823963%" id="linearGradient-4">
            <stop stop-color="#FFFFFF" offset="0%"></stop>
            <stop stop-color="#FFFFFF" stop-opacity="0.25" offset="100%"></stop>
        </linearGradient>
    </defs>
    <g id="4091-Logo" stroke="none" stroke-width="1" fill="none" fill-rule="evenodd">
        <g id="Group" fill-rule="nonzero">
            <g id="Sky_Sports_Mix_PRIMARY_RGB">
                <g id="XMLID_263_" transform="translate(117.650000, 0.000000)" fill="#FFFFFF">
                    <path d="M42.25,26 L1.755,26 C0.801666667,26 0.0216666667,25.22 0.0216666667,24.2666667 L0.0216666667,1.73333333 C0.0216666667,0.78 0.801666667,0 1.755,0 L42.25,0 C43.2033333,0 43.9833333,0.78 43.9833333,1.73333333 L43.9833333,24.2666667 C43.9833333,25.22 43.2033333,26 42.25,26 Z" id="Path"></path>
                </g>
                <path d="M156.866667,6.73833333 C156.628333,6.84666667 156.368333,6.97666667 156.173333,7.15 C156.086667,7.10666667 156.108333,7.215 156.065,7.23666667 C155.826667,7.41 155.631667,7.64833333 155.393333,7.82166667 C155.436667,7.84333333 155.415,7.88666667 155.393333,7.88666667 L155.285,7.97333333 L155.306667,7.995 C155.003333,8.27666667 154.678333,8.645 154.375,8.97 C154.353333,9.05666667 154.331667,9.165 154.245,9.20833333 L154.266667,9.23 C154.158333,9.31666667 154.115,9.36 154.05,9.46833333 C154.071667,9.44666667 154.05,9.425 154.028333,9.425 L153.985,9.46833333 L154.006667,9.49 C154.006667,9.49 153.985,9.49 153.985,9.49 C153.963333,9.49 153.963333,9.51166667 153.941667,9.53333333 C154.028333,9.64166667 153.855,9.64166667 153.833333,9.70666667 C153.811667,9.685 153.811667,9.66333333 153.79,9.685 L153.768333,9.70666667 C153.79,9.72833333 153.79,9.72833333 153.79,9.75 L153.768333,9.72833333 C153.746667,9.75 153.703333,9.77166667 153.703333,9.79333333 L153.725,9.815 L153.681667,9.85833333 C153.681667,9.92333333 153.681667,9.83666667 153.66,9.83666667 C153.551667,9.85833333 153.681667,9.92333333 153.595,9.96666667 L153.551667,9.92333333 C153.53,9.945 153.508333,9.945 153.53,9.96666667 L153.573333,10.01 C153.551667,10.01 153.508333,10.01 153.508333,9.98833333 C153.486667,10.01 153.465,10.01 153.486667,10.0316667 C153.508333,10.0533333 153.508333,10.075 153.53,10.0533333 C153.313333,10.14 153.291667,10.4216667 153.075,10.5516667 C152.88,10.7683333 152.836667,10.985 152.641667,11.2016667 L152.663333,11.2233333 C152.75,11.115 152.836667,11.05 152.901667,10.9416667 C152.793333,11.2016667 152.533333,11.375 152.468333,11.6783333 L152.49,11.7 C152.468333,11.7216667 152.468333,11.7216667 152.468333,11.7433333 L152.49,11.765 C152.555,11.6783333 152.62,11.635 152.663333,11.57 C152.576667,11.9166667 152.273333,12.09 152.143333,12.415 C152.143333,12.4583333 152.165,12.5016667 152.208333,12.545 C152.208333,12.5233333 152.23,12.5666667 152.23,12.5666667 L152.403333,12.7833333 C152.36,12.7616667 152.36,12.7833333 152.338333,12.7833333 C152.381667,12.87 152.425,12.8916667 152.468333,12.9783333 C152.49,13 152.49,13.0433333 152.511667,13.065 L152.533333,13.065 C152.533333,13.1083333 152.533333,13.13 152.555,13.1733333 C152.555,13.195 152.576667,13.195 152.576667,13.2166667 C152.598333,13.26 152.641667,13.325 152.663333,13.3683333 L152.728333,13.6066667 C152.771667,13.65 152.793333,13.715 152.815,13.7583333 C152.901667,13.9316667 153.053333,14.04 153.161667,14.1916667 C153.313333,14.3866667 153.421667,14.7116667 153.508333,14.885 C153.703333,15.275 153.985,15.4916667 154.158333,15.9033333 C154.245,16.12 154.396667,16.2933333 154.526667,16.4883333 C154.57,16.5533333 154.635,16.6183333 154.678333,16.6833333 C154.7,16.705 154.743333,16.7266667 154.765,16.77 C154.851667,16.8783333 155.003333,17.03 154.938333,17.095 C154.916667,17.1383333 155.046667,17.29 155.133333,17.42 C155.155,17.4416667 155.176667,17.4633333 155.176667,17.485 C155.241667,17.5716667 155.241667,17.6583333 155.241667,17.6583333 C155.241667,17.68 155.263333,17.68 155.263333,17.7016667 C155.328333,17.745 155.458333,18.005 155.501667,18.135 L155.501667,18.135 C155.501667,18.1566667 155.523333,18.1783333 155.523333,18.1783333 C155.523333,18.2 155.545,18.2 155.545,18.2 C155.545,18.2 155.545,18.2 155.545,18.2 C155.588333,18.33 155.588333,18.4816667 155.588333,18.6116667 C155.588333,18.6983333 155.566667,18.8066667 155.545,18.915 C155.545,18.915 155.523333,18.915 155.523333,18.915 C155.501667,19.0016667 155.545,19.0666667 155.48,19.11 L155.436667,19.0883333 C155.48,19.175 155.371667,19.1316667 155.328333,19.1533333 C155.22,19.0883333 155.22,19.2616667 155.068333,19.2183333 C154.938333,19.3266667 154.786667,19.0883333 154.635,19.175 C154.613333,18.98 154.375,18.9366667 154.353333,18.7633333 C154.223333,18.6116667 154.028333,18.4816667 153.941667,18.3083333 C153.811667,18.1133333 153.79,17.8966667 153.66,17.68 C153.595,17.5716667 153.638333,17.7666667 153.573333,17.6583333 L153.595,17.81 L153.53,17.7016667 C153.53,17.7016667 153.53,17.7016667 153.53,17.7016667 C153.465,17.615 153.335,17.5716667 153.291667,17.485 C153.291667,17.4633333 153.27,17.4633333 153.27,17.4416667 C153.118333,17.225 152.966667,17.0516667 152.836667,16.835 L152.858333,16.8133333 C152.923333,16.835 152.966667,16.9216667 153.01,16.965 L153.031667,16.9433333 C152.901667,16.77 152.771667,16.5966667 152.641667,16.4233333 C152.316667,16.12 152.165,15.7516667 151.97,15.3616667 C151.796667,15.0366667 151.515,14.8633333 151.298333,14.56 C151.211667,14.4516667 151.146667,14.3433333 151.081667,14.2566667 C151.081667,14.3 151.146667,14.365 151.125,14.4083333 C151.168333,14.495 151.298333,14.6033333 151.32,14.7116667 C151.276667,14.56 151.103333,14.43 150.995,14.3866667 L150.973333,14.4083333 L150.886667,14.3 C150.821667,14.365 150.8,14.495 150.713333,14.495 C150.756667,14.6033333 150.626667,14.6033333 150.583333,14.69 C150.605,14.7766667 150.54,14.8633333 150.496667,14.95 C150.41,14.9933333 150.388333,15.08 150.366667,15.145 L150.345,15.1233333 C150.323333,15.145 150.301667,15.145 150.323333,15.1666667 C150.323333,15.275 150.215,15.3833333 150.15,15.4916667 C149.825,15.9466667 149.586667,16.4666667 149.283333,16.9433333 C149.066667,17.2683333 148.828333,17.5933333 148.481667,17.8316667 C148.373333,18.0266667 148.156667,18.2433333 147.918333,18.2433333 L147.896667,18.2216667 C147.875,18.2866667 147.831667,18.2216667 147.81,18.2216667 C147.788333,18.1566667 147.615,18.2216667 147.55,18.1566667 C147.42,18.1566667 147.376667,17.9833333 147.246667,17.9616667 C147.333333,17.8533333 147.203333,17.745 147.29,17.6583333 C147.333333,17.615 147.398333,17.5066667 147.463333,17.4633333 C147.463333,17.3983333 147.485,17.29 147.528333,17.225 L147.55,17.2466667 C147.571667,17.225 147.593333,17.225 147.571667,17.2033333 C147.55,17.1816667 147.55,17.16 147.528333,17.1816667 L147.571667,17.1383333 L147.55,17.1166667 C147.571667,17.0083333 147.636667,16.9216667 147.68,16.835 C147.831667,16.6183333 148.048333,16.445 148.135,16.185 C148.806667,15.21 149.348333,14.17 150.085,13.2383333 C150.15,13.1516667 150.193333,13.0433333 150.171667,12.9566667 C150.15,12.9783333 150.15,12.9783333 150.128333,12.9783333 C150.106667,12.9566667 150.106667,12.9566667 150.106667,12.935 L150.128333,12.9566667 C150.171667,12.87 150.085,12.7616667 150.041667,12.6533333 C150.02,12.6316667 149.998333,12.6533333 149.998333,12.675 L150.02,12.8266667 C149.911667,12.61 149.695,12.415 149.63,12.22 C149.456667,12.1766667 149.478333,11.96 149.326667,11.8516667 C149.153333,11.4833333 148.915,11.2016667 148.72,10.8333333 C148.655,10.8766667 148.72,10.92 148.741667,10.985 C148.46,10.5083333 148.178333,9.96666667 147.875,9.46833333 C147.875,9.46833333 147.875,9.44666667 147.853333,9.44666667 C147.766667,9.25166667 147.766667,9.035 147.875,8.86166667 C147.918333,8.73166667 148.091667,8.62333333 148.178333,8.58 C148.113333,8.53666667 148.2,8.49333333 148.221667,8.45 C148.33,8.34166667 148.373333,8.14666667 148.546667,8.125 C148.503333,8.10333333 148.546667,8.03833333 148.568333,8.01666667 C148.633333,8.01666667 148.676667,7.95166667 148.72,7.90833333 C148.785,7.93 148.85,7.93 148.893333,7.995 C149.196667,8.36333333 149.456667,8.75333333 149.695,9.165 C149.976667,9.62 150.236667,10.075 150.583333,10.4866667 L150.561667,10.5083333 C150.583333,10.53 150.626667,10.595 150.626667,10.595 L150.648333,10.5733333 C150.843333,10.92 151.103333,11.2016667 151.363333,11.5266667 L151.406667,11.5266667 C151.818333,11.0933333 152.143333,10.6166667 152.555,10.2266667 C152.641667,10.0966667 152.75,9.92333333 152.901667,9.88 L152.923333,9.85833333 L152.901667,9.83666667 C152.988333,9.77166667 153.031667,9.64166667 153.14,9.62 L153.118333,9.59833333 C153.161667,9.555 153.205,9.51166667 153.248333,9.46833333 C154.375,8.29833333 155.436667,7.085 156.931667,6.41333333 C157.018333,6.32666667 157.105,6.305 157.213333,6.26166667 C157.213333,6.305 157.148333,6.32666667 157.213333,6.34833333 C157.256667,6.32666667 157.018333,6.58666667 156.866667,6.73833333" id="XMLID_262_" fill="#002A91"></path>
                <g id="Group" transform="translate(126.750000, 4.550000)" fill="#002A91">
                    <path d="M14.2783333,6.97666667 L14.2783333,13.0866667 C14.2783333,13.52 14.04,13.7366667 13.3466667,13.7366667 C13.0433333,13.7366667 12.7183333,13.6933333 12.545,13.65 L12.545,7.19333333 C12.545,5.72 11.8516667,4.85333333 10.5083333,4.85333333 C9.38166667,4.85333333 8.45,5.63333333 8.08166667,6.435 L8.08166667,13.1083333 C8.08166667,13.5416667 7.84333333,13.7583333 7.15,13.7583333 C6.84666667,13.7583333 6.52166667,13.715 6.34833333,13.6716667 L6.34833333,7.19333333 C6.34833333,5.72 5.655,4.85333333 4.31166667,4.85333333 C3.185,4.85333333 2.25333333,5.63333333 1.885,6.435 L1.885,13.1083333 C1.885,13.5416667 1.64666667,13.7583333 0.953333333,13.7583333 C0.65,13.7583333 0.325,13.715 0.151666667,13.6716667 L0.151666667,3.48833333 C0.325,3.445 0.65,3.40166667 0.975,3.40166667 C1.625,3.40166667 1.86333333,3.66166667 1.86333333,4.095 L1.86333333,4.78833333 C2.51333333,3.92166667 3.53166667,3.29333333 4.76666667,3.29333333 C6.11,3.29333333 7.17166667,3.965 7.71333333,5.135 C8.40666667,4.07333333 9.46833333,3.29333333 10.9633333,3.29333333 C13.13,3.29333333 14.2783333,4.91833333 14.2783333,6.97666667 Z" id="Path"></path>
                    <path d="M16.705,1.19166667 C16.705,0.563333333 17.2033333,0.0866666667 17.81,0.0866666667 C18.4383333,0.0866666667 18.9366667,0.541666667 18.9366667,1.19166667 C18.9366667,1.755 18.46,2.29666667 17.81,2.29666667 C17.2033333,2.275 16.705,1.755 16.705,1.19166667 Z M16.9433333,13.6716667 L16.9433333,4.05166667 C16.9433333,3.64 17.1816667,3.40166667 17.875,3.40166667 C18.1783333,3.40166667 18.4816667,3.445 18.655,3.48833333 L18.655,13.0866667 C18.655,13.52 18.4383333,13.7366667 17.745,13.7366667 C17.4416667,13.7583333 17.095,13.715 16.9433333,13.6716667 Z" id="Shape"></path>
                </g>
                <path d="M25.9783333,24.1366667 C26.2816667,24.2883333 26.91,24.4833333 27.7116667,24.505 C29.0766667,24.5266667 29.8133333,24.0066667 30.355,22.7933333 L37.635,6.58666667 C37.3316667,6.435 36.66,6.24 36.1183333,6.24 C35.1866667,6.21833333 33.93,6.41333333 33.1283333,8.32 L30.7666667,13.8666667 L26.1516667,6.34833333 C25.8483333,6.26166667 25.1116667,6.13166667 24.5916667,6.13166667 C22.945,6.13166667 22.035,6.73833333 21.1033333,7.75666667 L16.5966667,12.6533333 L20.215,18.33 C20.8866667,19.37 21.7533333,19.89 23.1833333,19.89 C24.115,19.89 24.895,19.6733333 25.2633333,19.5 L20.9083333,12.9783333 L23.985,9.70666667 L29.055,17.6366667 L25.9783333,24.1366667 Z M16.4233333,18.005 C16.4233333,19.1966667 15.9466667,19.89 13.6066667,19.89 C13.3033333,19.89 13.0216667,19.8683333 12.7616667,19.825 L12.7616667,3.965 C12.7616667,2.75166667 13.1733333,1.495 15.535,1.495 C15.8383333,1.495 16.1416667,1.51666667 16.4233333,1.58166667 L16.4233333,18.005 Z M11.5916667,15.6 C11.5916667,17.8316667 10.14,19.4566667 7.17166667,19.7816667 C5.02666667,20.02 1.90666667,19.7383333 0.433333333,19.565 C0.39,19.3266667 0.346666667,19.0233333 0.346666667,18.785 C0.346666667,16.835 1.38666667,16.4016667 2.38333333,16.4016667 C3.40166667,16.4016667 5.02666667,16.575 6.24,16.575 C7.56166667,16.575 7.97333333,16.12 7.97333333,15.7083333 C7.97333333,15.145 7.45333333,14.9283333 6.41333333,14.7116667 L3.59666667,14.17 C1.25666667,13.7366667 0,12.1116667 0,10.4 C0,8.32 1.47333333,6.565 4.37666667,6.26166667 C6.565,6.02333333 9.25166667,6.28333333 10.725,6.47833333 C10.7683333,6.71666667 10.8116667,6.97666667 10.8116667,7.23666667 C10.8116667,9.18666667 9.79333333,9.59833333 8.79666667,9.59833333 C8.03833333,9.59833333 6.86833333,9.46833333 5.50333333,9.46833333 C4.13833333,9.46833333 3.575,9.83666667 3.575,10.3133333 C3.575,10.8116667 4.11666667,11.0066667 4.98333333,11.1583333 L7.67,11.6566667 C10.4,12.1116667 11.5916667,13.6716667 11.5916667,15.6 Z" id="Sky_x5F_Logo_1_" fill="url(#linearGradient-1)"></path>
                <path d="M37.635,6.58666667 L34.97,12.5233333 C34.8833333,12.675 34.6016667,13.195 33.865,13.2166667 C33.6916667,13.2166667 31.4383333,13.3033333 31.4383333,13.3033333 C31.005,13.325 30.8533333,13.7366667 30.8533333,13.7366667 L30.8533333,13.7366667 L33.15,8.32 C33.9516667,6.41333333 35.2083333,6.21833333 36.14,6.24 C36.66,6.24 37.3316667,6.41333333 37.635,6.58666667 Z M30.6583333,13.6716667 L26.1516667,6.34833333 C25.8483333,6.26166667 25.1116667,6.13166667 24.5916667,6.13166667 C22.945,6.13166667 22.035,6.73833333 21.1033333,7.75666667 L16.5966667,12.6533333 L16.965,13.2166667 C17.1166667,13.4333333 17.42,13.78 18.0266667,13.7583333 C18.2433333,13.7583333 20.41,13.6716667 20.5833333,13.6716667 C21.1466667,13.65 21.4933333,13.8883333 21.71,14.17 L21.71,14.17 L20.9083333,12.9566667 L23.985,9.685 L26.065,12.935 L26.065,12.935 C26.4333333,13.4333333 26.9966667,13.4333333 27.1266667,13.4333333 C27.235,13.4333333 29.9433333,13.325 30.0733333,13.325 C30.2683333,13.325 30.485,13.4333333 30.6583333,13.6716667 Z M15.535,1.495 C13.1733333,1.495 12.7833333,2.75166667 12.7833333,3.965 L12.7833333,14.8416667 C12.7833333,14.4083333 13.13,13.9533333 13.6716667,13.9316667 C14.0616667,13.91 15.1666667,13.8883333 15.4916667,13.8666667 C15.86,13.845 16.4016667,13.6066667 16.4233333,12.935 L16.4233333,1.58166667 C16.1416667,1.53833333 15.8383333,1.495 15.535,1.495 Z M7.64833333,11.6133333 L4.96166667,11.115 C4.095,10.9633333 3.55333333,10.7683333 3.55333333,10.27 C3.55333333,9.815 4.11666667,9.425 5.48166667,9.425 C6.825,9.425 8.01666667,9.555 8.775,9.555 C9.77166667,9.555 10.79,9.14333333 10.79,7.19333333 C10.79,6.93333333 10.7683333,6.695 10.7033333,6.435 C9.23,6.26166667 6.565,5.98 4.355,6.21833333 C1.47333333,6.565 0,8.32 0,10.4 C0,11.4616667 0.476666667,12.5016667 1.43,13.2383333 C2.145,13.6933333 2.86,13.8883333 3.59666667,14.0183333 C4.20333333,14.1266667 5.56833333,14.2133333 6.60833333,14.17 C6.93333333,14.1483333 9.295,14.0833333 9.815,14.0616667 C11.0066667,14.0183333 11.6783333,15.0366667 11.5916667,16.0766667 C11.5916667,16.055 11.5916667,16.055 11.5916667,16.0333333 C11.5916667,16.0333333 11.5916667,16.0333333 11.5916667,16.0116667 C11.6133333,15.8816667 11.6133333,15.7516667 11.6133333,15.6 C11.5916667,13.6716667 10.4,12.1116667 7.64833333,11.6133333 Z" id="s25_2_" fill="url(#linearGradient-2)" opacity="0.25"></path>
                <path d="M119.578333,0 L43.2683333,0 C42.315,0 41.535,0.78 41.535,1.73333333 L41.535,24.2666667 C41.535,25.22 42.315,26 43.2683333,26 L119.6,26 C120.553333,26 121.333333,25.22 121.333333,24.2666667 L121.333333,1.73333333 C121.311667,0.78 120.531667,0 119.578333,0 Z" id="Plinth_1_" fill="url(#linearGradient-3)"></path>
                <path d="M42.77,12.8916667 C42.77,12.8916667 42.835,12.8916667 42.9433333,12.8916667 C48.0783333,12.7183333 120.033333,10.205 120.033333,10.205 C120.683333,10.1833333 121.333333,9.70666667 121.333333,8.88333333 L121.333333,1.73333333 C121.333333,0.78 120.553333,0 119.6,0 L43.2683333,0 C42.315,0 41.535,0.78 41.535,1.73333333 L41.535,14.2566667 C41.535,14.105 41.5566667,13.0216667 42.77,12.8916667 Z" id="p40_8_" fill="url(#linearGradient-4)" opacity="0.4"></path>
                <g id="Group" transform="translate(46.366667, 4.116667)" fill="#FFFFFF">
                    <path d="M0.151666667,14.56 C-2.77555756e-17,13.4983333 0.325,12.935 0.953333333,12.935 C1.53833333,12.935 2.96833333,13.5633333 4.96166667,13.5633333 C7.06333333,13.5633333 7.84333333,12.8266667 7.84333333,11.8516667 C7.84333333,11.1583333 7.54,10.5516667 5.655,10.0316667 L3.48833333,9.44666667 C1.08333333,8.81833333 0.151666667,7.605 0.151666667,6.13166667 C0.151666667,4.29 1.60333333,2.665 4.89666667,2.665 C6.37,2.665 8.21166667,2.99 9.33833333,3.42333333 C9.53333333,4.46333333 9.20833333,5.02666667 8.58,5.02666667 C8.01666667,5.02666667 6.73833333,4.485 4.94,4.485 C2.99,4.485 2.275,5.15666667 2.275,6.02333333 C2.275,6.63 2.55666667,7.19333333 4.29,7.69166667 L6.5,8.29833333 C8.97,8.99166667 9.96666667,10.14 9.96666667,11.765 C9.96666667,13.6716667 8.49333333,15.3833333 4.91833333,15.3833333 C3.315,15.405 1.34333333,15.015 0.151666667,14.56 Z" id="Path"></path>
                    <path d="M24.7,9.035 C24.7,13.0433333 21.8833333,15.405 18.8066667,15.405 C16.965,15.405 15.47,14.5383333 14.56,13.3033333 L14.56,18.46 C14.56,18.9366667 14.2783333,19.2616667 13.455,19.2616667 C13.0433333,19.2616667 12.6533333,19.2183333 12.4583333,19.1533333 L12.4583333,2.90333333 C12.6533333,2.86 13.0433333,2.795 13.455,2.795 C14.2783333,2.795 14.56,3.09833333 14.56,3.59666667 L14.56,4.76666667 C15.4483333,3.53166667 16.965,2.665 18.8066667,2.665 C21.8833333,2.665 24.7,5.04833333 24.7,9.035 Z M22.5766667,9.035 C22.5766667,6.34833333 20.8,4.50666667 18.395,4.50666667 C16.77,4.50666667 15.2533333,5.46 14.56,6.825 L14.56,11.245 C15.2533333,12.6316667 16.7483333,13.5633333 18.395,13.5633333 C20.8,13.5633333 22.5766667,11.7216667 22.5766667,9.035 Z" id="Shape"></path>
                    <path d="M26.715,9.035 C26.715,5.395 29.4016667,2.68666667 32.9983333,2.68666667 C36.6166667,2.68666667 39.3033333,5.395 39.3033333,9.035 C39.3033333,12.6533333 36.6166667,15.405 32.9983333,15.405 C29.4016667,15.405 26.715,12.6533333 26.715,9.035 Z M37.18,9.035 C37.18,6.21833333 35.295,4.50666667 32.9983333,4.50666667 C30.7233333,4.50666667 28.8383333,6.21833333 28.8383333,9.035 C28.8383333,11.8083333 30.7233333,13.585 32.9983333,13.585 C35.295,13.5633333 37.18,11.8083333 37.18,9.035 Z" id="Shape"></path>
                    <path d="M49.465,3.81333333 C49.465,4.65833333 49.1183333,4.83166667 48.23,4.83166667 C46.475,4.83166667 44.98,5.655 44.07,7.56166667 L44.07,14.4733333 C44.07,14.9933333 43.7883333,15.275 42.9433333,15.275 C42.5966667,15.275 42.185,15.2316667 41.9683333,15.1666667 L41.9683333,2.90333333 C42.1633333,2.86 42.575,2.795 42.9433333,2.795 C43.7883333,2.795 44.07,3.09833333 44.07,3.59666667 L44.07,5.30833333 C45.2616667,3.48833333 47.0816667,2.57833333 49.3566667,2.88166667 C49.3783333,3.055 49.465,3.445 49.465,3.81333333 Z" id="Path"></path>
                    <path d="M58.6516667,14.56 C57.59,15.08 56.355,15.405 55.12,15.405 C52.6933333,15.405 51.2416667,13.975 51.2416667,11.5916667 L51.2416667,1.06166667 C51.2416667,0.52 51.545,0.173333333 52.3683333,0.173333333 C52.715,0.173333333 53.1266667,0.26 53.3433333,0.303333333 L53.3433333,2.96833333 L58.11,2.96833333 C58.1316667,3.14166667 58.1966667,3.51 58.1966667,3.81333333 C58.1966667,4.55 57.8933333,4.81 57.4383333,4.81 L53.365,4.81 L53.365,11.4616667 C53.365,12.8916667 54.0366667,13.585 55.38,13.585 C56.615,13.585 57.2866667,13.0433333 57.8716667,13.0433333 C58.4566667,13.0433333 58.7816667,13.5416667 58.6516667,14.56 Z" id="Path"></path>
                    <path d="M60.1033333,14.56 C59.9516667,13.4983333 60.2766667,12.935 60.905,12.935 C61.49,12.935 62.92,13.5633333 64.9133333,13.5633333 C67.015,13.5633333 67.795,12.8266667 67.795,11.8516667 C67.795,11.1583333 67.4916667,10.5516667 65.6066667,10.0316667 L63.44,9.44666667 C61.035,8.81833333 60.1033333,7.605 60.1033333,6.13166667 C60.1033333,4.29 61.555,2.665 64.8483333,2.665 C66.3216667,2.665 68.1633333,2.99 69.29,3.42333333 C69.485,4.46333333 69.16,5.02666667 68.5316667,5.02666667 C67.9683333,5.02666667 66.69,4.485 64.8916667,4.485 C62.9416667,4.485 62.2266667,5.15666667 62.2266667,6.02333333 C62.2266667,6.63 62.5083333,7.19333333 64.2416667,7.69166667 L66.4516667,8.29833333 C68.9216667,8.99166667 69.9183333,10.14 69.9183333,11.765 C69.9183333,13.6716667 68.445,15.3833333 64.87,15.3833333 C63.2666667,15.405 61.295,15.015 60.1033333,14.56 Z" id="Path"></path>
                </g>
            </g>
        </g>
    </g>
</svg>